<svg width="20" height="20" viewBox="0 0 20 20" fill="none" xmlns="http://www.w3.org/2000/svg">
<path d="M10 2.7417C7.9625 2.7417 7.70812 2.75107 6.90812 2.7867C6.10937 2.8242 5.56562 2.94982 5.0875 3.13545C4.59437 3.3267 4.17562 3.58357 3.75875 4.00045C3.34187 4.41732 3.08438 4.83545 2.89375 5.3292C2.70813 5.80732 2.58187 6.35107 2.545 7.14982C2.5075 7.94982 2.5 8.2042 2.5 10.2417C2.5 12.2792 2.50937 12.5336 2.545 13.3336C2.5825 14.1317 2.70813 14.6761 2.89375 15.1542C3.085 15.6467 3.34187 16.0661 3.75875 16.4829C4.17562 16.8992 4.59375 17.1573 5.0875 17.3479C5.56625 17.5329 6.11 17.6598 6.90812 17.6967C7.70812 17.7342 7.9625 17.7417 10 17.7417C12.0375 17.7417 12.2919 17.7323 13.0919 17.6967C13.89 17.6592 14.4344 17.5329 14.9125 17.3479C15.405 17.1567 15.8244 16.8992 16.2413 16.4829C16.6575 16.0661 16.9156 15.6486 17.1063 15.1542C17.2913 14.6761 17.4181 14.1317 17.455 13.3336C17.4925 12.5336 17.5 12.2792 17.5 10.2417C17.5 8.2042 17.4906 7.94982 17.455 7.14982C17.4175 6.3517 17.2913 5.8067 17.1063 5.3292C16.915 4.83607 16.6575 4.41732 16.2413 4.00045C15.8244 3.58357 15.4069 3.32607 14.9125 3.13545C14.4344 2.94982 13.89 2.82357 13.0919 2.7867C12.2919 2.7492 12.0375 2.7417 10 2.7417ZM10 4.0917C12.0019 4.0917 12.2406 4.1017 13.0313 4.13607C13.7625 4.17045 14.1594 4.2917 14.4231 4.39545C14.7744 4.53107 15.0231 4.69357 15.2869 4.95545C15.5487 5.21795 15.7112 5.46732 15.8469 5.81857C15.9494 6.08232 16.0719 6.4792 16.105 7.21045C16.1406 8.0017 16.1487 8.2392 16.1487 10.2417C16.1487 12.2442 16.1394 12.4823 16.1025 13.2729C16.0644 14.0042 15.9425 14.4011 15.8394 14.6648C15.6994 15.0161 15.54 15.2648 15.2775 15.5286C15.0156 15.7904 14.7625 15.9529 14.415 16.0886C14.1525 16.1911 13.7494 16.3136 13.0181 16.3467C12.2219 16.3823 11.9875 16.3904 9.98125 16.3904C7.97438 16.3904 7.74 16.3811 6.94438 16.3442C6.2125 16.3061 5.80937 16.1842 5.54688 16.0811C5.19125 15.9411 4.94688 15.7817 4.685 15.5192C4.42188 15.2573 4.25375 15.0042 4.1225 14.6567C4.01937 14.3942 3.89813 13.9911 3.86 13.2598C3.83188 12.4723 3.82188 12.2292 3.82188 10.2323C3.82188 8.23482 3.83188 7.99107 3.86 7.1942C3.89813 6.46295 4.01937 6.06045 4.1225 5.79795C4.25375 5.4417 4.42188 5.19795 4.685 4.93482C4.94688 4.67295 5.19125 4.5042 5.54688 4.37357C5.80937 4.26982 6.20375 4.14795 6.935 4.11045C7.73188 4.08232 7.96625 4.07295 9.97187 4.07295L10 4.0917ZM10 6.39045C7.87188 6.39045 6.14875 8.11545 6.14875 10.2417C6.14875 12.3698 7.87375 14.0929 10 14.0929C12.1281 14.0929 13.8513 12.3679 13.8513 10.2417C13.8513 8.11357 12.1262 6.39045 10 6.39045ZM10 12.7417C8.61875 12.7417 7.5 11.6229 7.5 10.2417C7.5 8.86045 8.61875 7.7417 10 7.7417C11.3813 7.7417 12.5 8.86045 12.5 10.2417C12.5 11.6229 11.3813 12.7417 10 12.7417ZM14.9038 6.23857C14.9038 6.73545 14.5 7.13857 14.0038 7.13857C13.5069 7.13857 13.1037 6.73482 13.1037 6.23857C13.1037 5.74232 13.5075 5.3392 14.0038 5.3392C14.4994 5.33857 14.9038 5.74232 14.9038 6.23857Z" fill="#DEDAFF"/>
</svg>
