<svg width="14" height="15" viewBox="0 0 14 15" fill="none" xmlns="http://www.w3.org/2000/svg">
<path fill-rule="evenodd" clip-rule="evenodd" d="M3.4445 14.2417H0.777832V5.2417H3.4445V14.2417Z" fill="#DEDAFF"/>
<path fill-rule="evenodd" clip-rule="evenodd" d="M2.10324 3.2417H2.08809C1.2923 3.2417 0.777832 2.57473 0.777832 1.74118C0.777832 0.890005 1.30797 0.241699 2.11886 0.241699C2.92975 0.241699 3.42911 0.890005 3.4445 1.74118C3.4445 2.57473 2.92975 3.2417 2.10324 3.2417Z" fill="#DEDAFF"/>
<path fill-rule="evenodd" clip-rule="evenodd" d="M13.2221 14.2415H10.6017V9.53705C10.6017 8.35541 10.2225 7.54908 9.27385 7.54908C8.54988 7.54908 8.11866 8.09266 7.92927 8.61768C7.85998 8.80584 7.84297 9.068 7.84297 9.3308V14.2417H5.22217C5.22217 14.2417 5.25671 6.27353 5.22217 5.44842H7.84297V6.69391C8.19077 6.09518 8.81369 5.2417 10.205 5.2417C11.9294 5.2417 13.2222 6.49875 13.2222 9.19967L13.2221 14.2415Z" fill="#DEDAFF"/>
</svg>
