<svg width="171" height="147" viewBox="0 0 171 147" fill="none" xmlns="http://www.w3.org/2000/svg">
<mask id="mask0_278_35" style="mask-type:alpha" maskUnits="userSpaceOnUse" x="0" y="23" width="78" height="78">
<rect y="23" width="78" height="78" fill="#D9D9D9"/>
</mask>
<g mask="url(#mask0_278_35)">
<path d="M28.9505 86.0423C27.554 86.0423 26.3514 85.5771 25.3428 84.6465C24.3341 83.716 23.7264 82.5786 23.5195 81.2345L22.8212 76.1165C22.1488 75.858 21.5152 75.5478 20.9203 75.186C20.3255 74.8241 19.7436 74.4363 19.1747 74.0228L14.3643 76.039C13.0712 76.6076 11.7781 76.6593 10.485 76.194C9.1919 75.7288 8.18328 74.9016 7.45914 73.7126L3.81259 67.3538C3.08845 66.1648 2.88156 64.8982 3.1919 63.5541C3.50225 62.21 4.20052 61.0985 5.28673 60.2197L9.3988 57.1178C9.34707 56.756 9.32121 56.407 9.32121 56.071V53.9772C9.32121 53.6412 9.34707 53.2922 9.3988 52.9304L5.28673 49.8285C4.20052 48.9497 3.50225 47.8382 3.1919 46.4941C2.88156 45.15 3.08845 43.8834 3.81259 42.6943L7.45914 36.3356C8.18328 35.1466 9.1919 34.3194 10.485 33.8541C11.7781 33.3889 13.0712 33.4406 14.3643 34.0092L19.1747 36.0254C19.7436 35.6118 20.3384 35.2241 20.9591 34.8622C21.5798 34.5004 22.2005 34.1902 22.8212 33.9317L23.5195 28.8137C23.7264 27.4696 24.3341 26.3322 25.3428 25.4017C26.3514 24.4711 27.554 24.0059 28.9505 24.0059H36.2436C37.6402 24.0059 38.8428 24.4711 39.8514 25.4017C40.86 26.3322 41.4678 27.4696 41.6747 28.8137L42.3729 33.9317C43.0453 34.1902 43.679 34.5004 44.2738 34.8622C44.8686 35.2241 45.4505 35.6118 46.0195 36.0254L50.8298 34.0092C52.1229 33.4406 53.416 33.3889 54.7091 33.8541C56.0022 34.3194 57.0109 35.1466 57.735 36.3356L61.3815 42.6943C62.1057 43.8834 62.3126 45.15 62.0022 46.4941C61.6919 47.8382 60.9936 48.9497 59.9074 49.8285L55.7953 52.9304C55.8471 53.2922 55.8729 53.6412 55.8729 53.9772V56.071C55.8729 56.407 55.8212 56.756 55.7178 57.1178L59.8298 60.2197C60.916 61.0985 61.6143 62.21 61.9246 63.5541C62.235 64.8982 62.0281 66.1648 61.304 67.3538L57.5798 73.7126C56.8557 74.9016 55.8471 75.7288 54.554 76.194C53.2609 76.6593 51.9678 76.6076 50.6747 76.039L46.0195 74.0228C45.4505 74.4363 44.8557 74.8241 44.235 75.186C43.6143 75.5478 42.9936 75.858 42.3729 76.1165L41.6747 81.2345C41.4678 82.5786 40.86 83.716 39.8514 84.6465C38.8428 85.5771 37.6402 86.0423 36.2436 86.0423H28.9505ZM32.7522 65.8805C35.7522 65.8805 38.3126 64.8207 40.4333 62.7011C42.554 60.5815 43.6143 58.0225 43.6143 55.0241C43.6143 52.0257 42.554 49.4667 40.4333 47.3471C38.3126 45.2275 35.7522 44.1677 32.7522 44.1677C29.7005 44.1677 27.1272 45.2275 25.0324 47.3471C22.9376 49.4667 21.8902 52.0257 21.8902 55.0241C21.8902 58.0225 22.9376 60.5815 25.0324 62.7011C27.1272 64.8207 29.7005 65.8805 32.7522 65.8805Z" fill="#AAA5E2"/>
</g>
<mask id="mask1_278_35" style="mask-type:alpha" maskUnits="userSpaceOnUse" x="38" y="69" width="78" height="78">
<rect x="38" y="69" width="78" height="78" fill="#D9D9D9"/>
</mask>
<g mask="url(#mask1_278_35)">
<path d="M65.2367 129.945C63.8401 129.945 62.6375 129.48 61.6289 128.549C60.6203 127.619 60.0125 126.481 59.8056 125.137L59.1073 120.019C58.4349 119.761 57.8013 119.451 57.2065 119.089C56.6117 118.727 56.0298 118.339 55.4608 117.926L50.6504 119.942C49.3573 120.51 48.0642 120.562 46.7711 120.097C45.478 119.632 44.4694 118.804 43.7453 117.615L40.0987 111.257C39.3746 110.068 39.1677 108.801 39.478 107.457C39.7884 106.113 40.4867 105.001 41.5729 104.122L45.6849 101.021C45.6332 100.659 45.6073 100.31 45.6073 99.9738V97.8801C45.6073 97.544 45.6332 97.1951 45.6849 96.8332L41.5729 93.7314C40.4867 92.8525 39.7884 91.741 39.478 90.3969C39.1677 89.0528 39.3746 87.7862 40.0987 86.5972L43.7453 80.2384C44.4694 79.0494 45.478 78.2223 46.7711 77.757C48.0642 77.2917 49.3573 77.3434 50.6504 77.9121L55.4608 79.9283C56.0298 79.5147 56.6246 79.127 57.2453 78.7651C57.866 78.4032 58.4867 78.093 59.1073 77.8345L59.8056 72.7165C60.0125 71.3724 60.6203 70.2351 61.6289 69.3045C62.6375 68.374 63.8401 67.9087 65.2367 67.9087H72.5298C73.9263 67.9087 75.1289 68.374 76.1375 69.3045C77.1461 70.2351 77.7539 71.3724 77.9608 72.7165L78.6591 77.8345C79.3315 78.093 79.9651 78.4032 80.5599 78.7651C81.1548 79.127 81.7366 79.5147 82.3056 79.9283L87.116 77.9121C88.4091 77.3434 89.7022 77.2917 90.9953 77.757C92.2884 78.2223 93.297 79.0494 94.0211 80.2384L97.6677 86.5972C98.3918 87.7862 98.5987 89.0528 98.2884 90.3969C97.978 91.741 97.2797 92.8525 96.1935 93.7314L92.0815 96.8332C92.1332 97.1951 92.1591 97.544 92.1591 97.8801V99.9738C92.1591 100.31 92.1073 100.659 92.0039 101.021L96.116 104.122C97.2022 105.001 97.9004 106.113 98.2108 107.457C98.5211 108.801 98.3142 110.068 97.5901 111.257L93.866 117.615C93.1418 118.804 92.1332 119.632 90.8401 120.097C89.547 120.562 88.2539 120.51 86.9608 119.942L82.3056 117.926C81.7366 118.339 81.1418 118.727 80.5211 119.089C79.9004 119.451 79.2798 119.761 78.6591 120.019L77.9608 125.137C77.7539 126.481 77.1461 127.619 76.1375 128.549C75.1289 129.48 73.9263 129.945 72.5298 129.945H65.2367ZM69.0384 109.783C72.0384 109.783 74.5987 108.724 76.7194 106.604C78.8401 104.484 79.9004 101.925 79.9004 98.9269C79.9004 95.9285 78.8401 93.3695 76.7194 91.2499C74.5987 89.1303 72.0384 88.0705 69.0384 88.0705C65.9866 88.0705 63.4134 89.1303 61.3185 91.2499C59.2237 93.3695 58.1763 95.9285 58.1763 98.9269C58.1763 101.925 59.2237 104.484 61.3185 106.604C63.4134 108.724 65.9866 109.783 69.0384 109.783Z" fill="#AAA5E2"/>
</g>
<mask id="mask2_278_35" style="mask-type:alpha" maskUnits="userSpaceOnUse" x="93" y="0" width="78" height="78">
<rect x="93" width="78" height="78" fill="#D9D9D9"/>
</mask>
<g mask="url(#mask2_278_35)">
<path d="M117.757 64.0912C116.36 64.0912 115.158 63.6259 114.149 62.6953C113.14 61.7648 112.533 60.6275 112.326 59.2833L111.627 54.1653C110.955 53.9068 110.321 53.5967 109.726 53.2348C109.132 52.8729 108.55 52.4852 107.981 52.0716L103.17 54.0878C101.877 54.6564 100.584 54.7081 99.2912 54.2429C97.9981 53.7776 96.9894 52.9504 96.2653 51.7614L92.6187 45.4027C91.8946 44.2136 91.6877 42.9471 91.9981 41.6029C92.3084 40.2588 93.0067 39.1473 94.0929 38.2685L98.2049 35.1667C98.1532 34.8048 98.1274 34.4558 98.1274 34.1198V32.0261C98.1274 31.69 98.1532 31.3411 98.2049 30.9792L94.0929 27.8774C93.0067 26.9985 92.3084 25.887 91.9981 24.5429C91.6877 23.1988 91.8946 21.9322 92.6187 20.7432L96.2653 14.3844C96.9894 13.1954 97.9981 12.3683 99.2912 11.903C100.584 11.4377 101.877 11.4894 103.17 12.0581L107.981 14.0743C108.55 13.6607 109.145 13.273 109.765 12.9111C110.386 12.5492 111.007 12.239 111.627 11.9805L112.326 6.86251C112.533 5.51839 113.14 4.38106 114.149 3.45051C115.158 2.51996 116.36 2.05469 117.757 2.05469H125.05C126.446 2.05469 127.649 2.51996 128.658 3.45051C129.666 4.38106 130.274 5.51839 130.481 6.86251L131.179 11.9805C131.851 12.239 132.485 12.5492 133.08 12.9111C133.675 13.273 134.257 13.6607 134.826 14.0743L139.636 12.0581C140.929 11.4894 142.222 11.4377 143.515 11.903C144.808 12.3683 145.817 13.1954 146.541 14.3844L150.188 20.7432C150.912 21.9322 151.119 23.1988 150.808 24.5429C150.498 25.887 149.8 26.9985 148.714 27.8774L144.601 30.9792C144.653 31.3411 144.679 31.69 144.679 32.0261V34.1198C144.679 34.4558 144.627 34.8048 144.524 35.1667L148.636 38.2685C149.722 39.1473 150.42 40.2588 150.731 41.6029C151.041 42.9471 150.834 44.2136 150.11 45.4027L146.386 51.7614C145.662 52.9504 144.653 53.7776 143.36 54.2429C142.067 54.7081 140.774 54.6564 139.481 54.0878L134.826 52.0716C134.257 52.4852 133.662 52.8729 133.041 53.2348C132.42 53.5967 131.8 53.9068 131.179 54.1653L130.481 59.2833C130.274 60.6275 129.666 61.7648 128.658 62.6953C127.649 63.6259 126.446 64.0912 125.05 64.0912H117.757ZM121.558 43.9293C124.558 43.9293 127.119 42.8695 129.239 40.7499C131.36 38.6304 132.42 36.0714 132.42 33.0729C132.42 30.0745 131.36 27.5155 129.239 25.3959C127.119 23.2763 124.558 22.2165 121.558 22.2165C118.507 22.2165 115.933 23.2763 113.839 25.3959C111.744 27.5155 110.696 30.0745 110.696 33.0729C110.696 36.0714 111.744 38.6304 113.839 40.7499C115.933 42.8695 118.507 43.9293 121.558 43.9293Z" fill="#2A274C"/>
</g>
</svg>
