<svg width="147" height="86" viewBox="0 0 147 86" fill="none" xmlns="http://www.w3.org/2000/svg">
<path d="M83.542 67.3717V56.3702C83.542 54.2092 84.0986 52.1792 85.2119 50.2801C86.3251 48.3811 87.864 46.9404 89.8285 45.9581C93.1683 44.2555 96.9336 42.8148 101.125 41.6361C105.316 40.4574 109.932 39.868 114.975 39.868C120.017 39.868 124.634 40.4574 128.825 41.6361C133.016 42.8148 136.781 44.2555 140.121 45.9581C142.085 46.9404 143.624 48.3811 144.738 50.2801C145.851 52.1792 146.407 54.2092 146.407 56.3702V67.3717H83.542ZM114.975 35.9389C110.653 35.9389 106.953 34.4001 103.875 31.3223C100.797 28.2445 99.2583 24.5446 99.2583 20.2226H98.2761C97.6867 20.2226 97.2119 20.0425 96.8518 19.6823C96.4916 19.3222 96.3115 18.8474 96.3115 18.258C96.3115 17.6687 96.4916 17.1939 96.8518 16.8338C97.2119 16.4736 97.6867 16.2935 98.2761 16.2935H99.2583C99.2583 13.3467 99.9787 10.6946 101.419 8.3371C102.86 5.97965 104.759 4.11333 107.117 2.73815V6.47078C107.117 7.06014 107.297 7.53491 107.657 7.89508C108.017 8.25524 108.492 8.43533 109.081 8.43533C109.67 8.43533 110.145 8.25524 110.505 7.89508C110.866 7.53491 111.046 7.06014 111.046 6.47078V1.16651C111.635 0.970057 112.257 0.822717 112.912 0.72449C113.567 0.626262 114.254 0.577148 114.975 0.577148C115.695 0.577148 116.383 0.626262 117.037 0.72449C117.692 0.822717 118.314 0.970057 118.904 1.16651V6.47078C118.904 7.06014 119.084 7.53491 119.444 7.89508C119.804 8.25524 120.279 8.43533 120.868 8.43533C121.458 8.43533 121.932 8.25524 122.293 7.89508C122.653 7.53491 122.833 7.06014 122.833 6.47078V2.73815C125.19 4.11333 127.089 5.97965 128.53 8.3371C129.971 10.6946 130.691 13.3467 130.691 16.2935H131.673C132.263 16.2935 132.737 16.4736 133.098 16.8338C133.458 17.1939 133.638 17.6687 133.638 18.258C133.638 18.8474 133.458 19.3222 133.098 19.6823C132.737 20.0425 132.263 20.2226 131.673 20.2226H130.691C130.691 24.5446 129.152 28.2445 126.074 31.3223C122.997 34.4001 119.297 35.9389 114.975 35.9389ZM114.975 28.0808C117.136 28.0808 118.986 27.3113 120.525 25.7724C122.063 24.2335 122.833 22.3836 122.833 20.2226H107.117C107.117 22.3836 107.886 24.2335 109.425 25.7724C110.964 27.3113 112.814 28.0808 114.975 28.0808Z" fill="#2A274C"/>
<path d="M42.2231 76.3975V65.3961C42.2231 63.2351 42.7798 61.2051 43.893 59.306C45.0062 57.4069 46.5451 55.9663 48.5097 54.984C51.8494 53.2814 55.6148 51.8407 59.8058 50.662C63.9968 49.4833 68.6135 48.8939 73.6559 48.8939C78.6982 48.8939 83.3149 49.4833 87.5059 50.662C91.6969 51.8407 95.4623 53.2814 98.802 54.984C100.767 55.9663 102.305 57.4069 103.419 59.306C104.532 61.2051 105.089 63.2351 105.089 65.3961V76.3975H42.2231ZM73.6559 44.9648C69.3339 44.9648 65.634 43.4259 62.5562 40.3481C59.4784 37.2704 57.9395 33.5705 57.9395 29.2485H56.9572C56.3679 29.2485 55.8931 29.0684 55.5329 28.7082C55.1728 28.3481 54.9927 27.8733 54.9927 27.2839C54.9927 26.6946 55.1728 26.2198 55.5329 25.8596C55.8931 25.4995 56.3679 25.3194 56.9572 25.3194H57.9395C57.9395 22.3726 58.6598 19.7204 60.1005 17.363C61.5412 15.0055 63.4402 13.1392 65.7977 11.764V15.4967C65.7977 16.086 65.9778 16.5608 66.3379 16.921C66.6981 17.2811 67.1729 17.4612 67.7622 17.4612C68.3516 17.4612 68.8264 17.2811 69.1865 16.921C69.5467 16.5608 69.7268 16.086 69.7268 15.4967V10.1924C70.3161 9.99594 70.9382 9.8486 71.5931 9.75037C72.2479 9.65214 72.9355 9.60303 73.6559 9.60303C74.3762 9.60303 75.0638 9.65214 75.7186 9.75037C76.3735 9.8486 76.9956 9.99594 77.5849 10.1924V15.4967C77.5849 16.086 77.765 16.5608 78.1252 16.921C78.4854 17.2811 78.9601 17.4612 79.5495 17.4612C80.1389 17.4612 80.6136 17.2811 80.9738 16.921C81.334 16.5608 81.514 16.086 81.514 15.4967V11.764C83.8715 13.1392 85.7705 15.0055 87.2112 17.363C88.6519 19.7204 89.3722 22.3726 89.3722 25.3194H90.3545C90.9438 25.3194 91.4186 25.4995 91.7788 25.8596C92.1389 26.2198 92.319 26.6946 92.319 27.2839C92.319 27.8733 92.1389 28.3481 91.7788 28.7082C91.4186 29.0684 90.9438 29.2485 90.3545 29.2485H89.3722C89.3722 33.5705 87.8333 37.2704 84.7555 40.3481C81.6777 43.4259 77.9779 44.9648 73.6559 44.9648ZM73.6559 37.1066C75.8169 37.1066 77.6668 36.3372 79.2057 34.7983C80.7446 33.2594 81.514 31.4095 81.514 29.2485H65.7977C65.7977 31.4095 66.5671 33.2594 68.106 34.7983C69.6449 36.3372 71.4949 37.1066 73.6559 37.1066Z" fill="#55517E"/>
<path d="M0.904297 85.4229V74.4215C0.904297 72.2605 1.46092 70.2305 2.57416 68.3314C3.6874 66.4323 5.22629 64.9917 7.19084 64.0094C10.5306 62.3068 14.2959 60.8661 18.487 59.6874C22.678 58.5087 27.2947 57.9193 32.337 57.9193C37.3793 57.9193 41.996 58.5087 46.187 59.6874C50.3781 60.8661 54.1435 62.3068 57.4832 64.0094C59.4477 64.9917 60.9866 66.4323 62.0999 68.3314C63.2131 70.2305 63.7697 72.2605 63.7697 74.4215V85.4229H0.904297ZM32.337 53.9902C28.015 53.9902 24.3151 52.4513 21.2373 49.3735C18.1595 46.2957 16.6207 42.5959 16.6207 38.2739H15.6384C15.049 38.2739 14.5743 38.0938 14.2141 37.7336C13.8539 37.3734 13.6738 36.8987 13.6738 36.3093C13.6738 35.72 13.8539 35.2452 14.2141 34.885C14.5743 34.5249 15.049 34.3448 15.6384 34.3448H16.6207C16.6207 31.398 17.341 28.7458 18.7817 26.3884C20.2223 24.0309 22.1214 22.1646 24.4788 20.7894V24.5221C24.4788 25.1114 24.6589 25.5862 25.0191 25.9463C25.3792 26.3065 25.854 26.4866 26.4434 26.4866C27.0327 26.4866 27.5075 26.3065 27.8677 25.9463C28.2278 25.5862 28.4079 25.1114 28.4079 24.5221V19.2178C28.9973 19.0213 29.6194 18.874 30.2742 18.7758C30.9291 18.6775 31.6167 18.6284 32.337 18.6284C33.0573 18.6284 33.7449 18.6775 34.3998 18.7758C35.0546 18.874 35.6767 19.0213 36.2661 19.2178V24.5221C36.2661 25.1114 36.4462 25.5862 36.8063 25.9463C37.1665 26.3065 37.6413 26.4866 38.2306 26.4866C38.82 26.4866 39.2948 26.3065 39.6549 25.9463C40.0151 25.5862 40.1952 25.1114 40.1952 24.5221V20.7894C42.5526 22.1646 44.4517 24.0309 45.8924 26.3884C47.333 28.7458 48.0534 31.398 48.0534 34.3448H49.0356C49.625 34.3448 50.0998 34.5249 50.4599 34.885C50.8201 35.2452 51.0002 35.72 51.0002 36.3093C51.0002 36.8987 50.8201 37.3734 50.4599 37.7336C50.0998 38.0938 49.625 38.2739 49.0356 38.2739H48.0534C48.0534 42.5959 46.5145 46.2957 43.4367 49.3735C40.3589 52.4513 36.659 53.9902 32.337 53.9902ZM32.337 46.132C34.498 46.132 36.348 45.3626 37.8868 43.8237C39.4257 42.2848 40.1952 40.4349 40.1952 38.2739H24.4788C24.4788 40.4349 25.2483 42.2848 26.7872 43.8237C28.3261 45.3626 30.176 46.132 32.337 46.132Z" fill="#AAA5E2"/>
</svg>
