<?xml version="1.0" encoding="UTF-8" standalone="no"?>
<!-- Created with Inkscape (http://www.inkscape.org/) -->

<svg
   version="1.1"
   id="svg1"
   width="1515.73"
   height="379.00003"
   viewBox="0 0 1515.73 379.00003"
   xmlns="http://www.w3.org/2000/svg"
   xmlns:svg="http://www.w3.org/2000/svg">
  <defs
     id="defs1" />
  <g
     id="g1"
     transform="translate(-303.36163,-309.73294)">
    <path
       style="fill:#000000"
       d="m 322.80849,685.19776 c -7.22537,-4.06823 -15.71904,-13.42758 -16.21183,-17.86414 -0.18432,-1.6595 -1.12123,-4.47172 -2.08201,-6.24938 -1.27194,-2.35337 -1.46498,-5.61588 -0.71003,-12 1.08246,-9.15356 1.62417,-14.95303 2.74938,-29.43456 0.37037,-4.76666 1.78158,-11.96666 3.13601,-16 1.35444,-4.03333 3.4769,-12.13333 4.71659,-18 1.23969,-5.86666 3.1051,-12.63702 4.14537,-15.04523 1.04027,-2.40822 1.8914,-5.29548 1.8914,-6.41614 0,-2.30524 2.9985,-12.61496 6.55518,-22.53863 5.40824,-15.08977 9.67986,-28.19894 10.20999,-31.33333 0.31007,-1.83333 1.4912,-7.23333 2.62474,-12 1.13353,-4.76667 2.3826,-11.06667 2.77571,-14 0.39311,-2.93333 1.40086,-7.13158 2.23945,-9.32944 0.83859,-2.19786 1.35186,-5.3151 1.14061,-6.92719 -0.21126,-1.61209 0.32403,-4.25423 1.18952,-5.87141 0.86549,-1.61719 1.52275,-5.39995 1.46057,-8.40615 -0.0622,-3.0062 1.33115,-10.56581 3.09627,-16.79914 1.76513,-6.23334 3.11403,-12.23334 2.99755,-13.33334 -0.11647,-1.1 0.75161,-4.1 1.92907,-6.66666 2.32338,-5.06457 4.00419,-11.19129 7.31575,-26.66667 1.17694,-5.5 3.26317,-12.2261 4.63607,-14.94688 1.37291,-2.72079 2.49619,-6.66443 2.49619,-8.76364 0,-2.09922 2.46622,-9.77312 5.4805,-17.05312 3.01427,-7.28 5.89609,-16.38818 6.40403,-20.2404 0.50795,-3.85222 1.64173,-7.72222 2.51951,-8.6 0.87778,-0.87778 1.59596,-3.50598 1.59596,-5.84045 0,-3.09666 0.70789,-4.42961 2.61764,-4.92902 3.68722,-0.96423 4.98198,1.21525 6.10335,10.27383 0.5379,4.34517 2.23756,10.03513 3.77704,12.64435 2.39908,4.06614 2.84699,7.24126 3.13451,22.22002 0.20326,10.5894 1.05998,19.53021 2.17408,22.68898 1.36549,3.8715 1.53441,7.27169 0.65643,13.213 -2.14304,14.50209 -1.49389,26.73411 1.75192,33.01189 2.45636,4.75087 2.86469,7.46638 2.55452,16.98811 -0.65003,19.95551 -0.46986,26.16837 1.05838,36.49659 0.0947,0.63979 1.08663,0.40429 2.20435,-0.52333 3.15706,-2.62013 3.35494,-1.19754 1.12448,8.084 -3.09461,12.87746 -1.86982,45.65757 2.11513,56.6094 1.60099,4.4 3.39084,10.4 3.97744,13.33334 0.58659,2.93333 3.02914,12.23333 5.42787,20.66666 4.91165,17.26809 6.41751,25.47208 6.55886,35.73288 0.0535,3.88642 0.98017,8.77344 2.0592,10.86004 1.07902,2.0866 2.36909,6.34054 2.86683,9.45319 1.01026,6.31784 6.69273,15.95389 9.40815,15.95389 0.96973,0 1.76315,0.91883 1.76315,2.04185 0,1.12302 0.9,2.38721 2,2.80932 2.26114,0.86768 2.74484,7.86445 0.63387,9.1691 -0.82459,0.50963 -1.03031,3.37579 -0.51898,7.23042 0.81472,6.14168 0.70653,6.42138 -2.82673,7.30818 -2.02063,0.50714 -4.17013,0.42582 -4.77667,-0.18072 -0.60654,-0.60653 -1.66087,-5.0435 -2.34296,-9.85991 -0.68209,-4.81641 -2.85296,-11.93983 -4.82417,-15.82981 -4.3818,-8.64707 -10.25961,-26.75385 -9.40957,-28.9865 0.34162,-0.89727 -0.34665,-2.173 -1.52949,-2.83494 -1.18283,-0.66195 -1.83405,-2.02848 -1.44715,-3.03673 1.02481,-2.6706 -1.37401,-29.36081 -2.92071,-32.49692 -0.72334,-1.46667 -2.84633,-8.06667 -4.71775,-14.66667 -1.87143,-6.6 -4.64516,-15.3 -6.16385,-19.33333 -1.51869,-4.03334 -2.72114,-9.92327 -2.6721,-13.08874 0.0725,-4.67931 -0.32607,-5.67544 -2.13166,-5.32771 -1.48391,0.28577 -2.77419,2.85921 -3.88846,7.7554 -0.9172,4.03024 -2.64104,11.52771 -3.83076,16.66105 -1.18973,5.13333 -2.74307,12.03333 -3.45188,15.33333 -0.70881,3.3 -1.8645,7.04186 -2.56819,8.31524 -0.7037,1.27338 -1.27945,3.12755 -1.27945,4.12037 0,0.99282 -1.73535,5.35096 -3.85632,9.68476 -2.12098,4.3338 -4.25141,10.14691 -4.73429,12.91802 -0.48288,2.77112 -1.9894,6.97112 -3.34781,9.33334 -1.35841,2.36221 -2.84708,6.11482 -3.30815,8.33913 -0.46106,2.22431 -2.31921,5.76763 -4.1292,7.87405 -1.81,2.10643 -3.2909,4.60353 -3.2909,5.54914 0,0.9456 -2.1,5.90366 -4.66667,11.01792 -2.56666,5.11425 -4.68575,10.09725 -4.70907,11.07334 -0.0233,0.97608 -0.92332,2.93937 -2,4.36286 -1.07668,1.4235 -1.95759,3.63098 -1.95759,4.90552 0,1.27454 -3.60326,6.46276 -8.00725,11.52939 -9.36742,10.77689 -12.71048,11.62985 -22.96097,5.85833 z m 17.11971,-11.21474 c 2.95536,-3.11667 6.4323,-8.36667 7.72653,-11.66667 1.29424,-3.3 4.40154,-10.2 6.90513,-15.33333 2.50359,-5.13334 4.55158,-9.87939 4.55108,-10.54679 -4.9e-4,-0.6674 3.2991,-7.99994 7.33243,-16.29454 4.03334,-8.29459 7.33334,-16.61186 7.33334,-18.48281 0,-1.87095 2.4,-8.17509 5.33333,-14.0092 4.44009,-8.83089 5.33333,-11.93912 5.33333,-18.55838 0,-4.373 0.6,-8.32173 1.33334,-8.77495 2.05939,-1.27277 1.58108,-3.07164 -1,-3.7609 -2.00151,-0.53449 -1.91863,-0.75701 0.58279,-1.56468 3.22198,-1.04032 5.74752,-6.83487 5.75612,-13.20672 0.003,-2.2739 1.50675,-7.09332 3.34151,-10.70983 2.57221,-5.07009 3.20535,-8.01249 2.76552,-12.85242 -0.39298,-4.32448 0.0838,-7.21104 1.53294,-9.27992 1.42092,-2.02864 2.195,-6.5107 2.38582,-13.81424 0.15536,-5.94621 0.71097,-13.90898 1.23468,-17.69504 0.61667,-4.4581 0.40423,-7.90764 -0.60289,-9.78947 -2.48252,-4.63863 -2.68775,-10.2756 -0.55956,-15.36908 2.35539,-5.63724 1.53122,-15.22488 -2.19976,-25.58992 -2.27608,-6.32319 -2.43032,-9.66013 -1.67256,-36.18473 0.4591,-16.07055 0.34963,-30.33605 -0.24328,-31.70112 -0.59291,-1.36506 -0.90205,-3.08193 -0.68698,-3.81526 1.24338,-4.23951 -1.88655,-26.03492 -3.72888,-25.96626 -1.45259,0.0541 -9.57214,17.73966 -9.57214,20.84946 0,1.55732 -0.97315,3.20493 -2.16256,3.66135 -1.54439,0.59263 -1.95497,1.8721 -1.43636,4.47598 0.42485,2.13306 -0.061,4.72017 -1.17077,6.23431 -1.04334,1.42349 -1.90067,3.52349 -1.90519,4.66666 -0.005,1.14317 -0.90133,3.79094 -1.99293,5.88393 -1.09159,2.09299 -1.6945,4.27501 -1.33979,4.84893 0.3547,0.57392 -0.24269,1.78012 -1.32753,2.68046 -1.24862,1.03626 -1.67788,2.81055 -1.16976,4.83505 0.44147,1.75895 0.13194,4.00627 -0.68784,4.99405 -0.81978,0.98777 -1.7219,4.19819 -2.0047,7.13425 -0.2828,2.93606 -1.17907,6.58064 -1.99171,8.09907 -0.81264,1.51843 -1.47753,4.41739 -1.47753,6.44214 0,2.16873 -1.45662,5.20176 -3.54504,7.3816 -3.05964,3.19357 -3.24383,3.81581 -1.34519,4.54439 2.00153,0.76806 1.97215,1.13364 -0.32596,4.05521 -1.84612,2.34696 -2.34383,4.5678 -1.84957,8.25284 0.41175,3.06983 -0.39668,8.66973 -2.06696,14.31751 -1.50877,5.10166 -2.67935,11.24242 -2.60128,13.64614 0.0781,2.40372 -0.8126,7.50372 -1.97925,11.33333 -1.16665,3.82961 -2.7003,10.56293 -3.40812,14.96293 -0.70782,4.4 -1.99032,10.4 -2.85001,13.33333 -0.85969,2.93334 -2.02227,7.88051 -2.58351,10.99372 -0.56124,3.11322 -1.9377,6.71322 -3.05879,8 -1.12109,1.28679 -1.78497,3.03463 -1.47528,3.8841 0.30968,0.84946 -0.0686,1.93487 -0.84065,2.41202 -0.77205,0.47715 -1.40372,2.98135 -1.40372,5.56489 0,2.58354 -1.44857,8.99813 -3.21904,14.25464 -4.4905,13.33223 -7.95843,25.36393 -7.66649,26.59831 0.47587,2.01208 -4.10236,14.29232 -5.32836,14.29232 -0.69741,0 -0.85368,2.06076 -0.35702,4.70816 0.73127,3.89803 0.35471,5.16656 -2.18842,7.37221 -2.68842,2.33166 -3.11787,4.07953 -3.44197,14.00892 -0.20367,6.23968 -0.62013,11.77219 -0.92546,12.29446 -0.30534,0.52227 -0.65513,6.40117 -0.77732,13.06421 -0.33855,18.46181 4.10073,28.46543 15.23741,34.33653 5.98779,3.15668 7.61353,2.74061 13.48483,-3.45115 z m 180.25284,-14.77765 c -7.65052,-3.52943 -21.30365,-17.68418 -25.93614,-26.88902 -2.54866,-5.06423 -3.35867,-8.74984 -3.36993,-15.33333 -0.0104,-6.05617 -0.94935,-10.87555 -3.11739,-16 -1.70641,-4.03334 -3.49081,-9.13334 -3.96535,-11.33334 -1.21585,-5.63686 -4.32683,-10 -7.13014,-10 -1.31256,0 -4.08381,1.77164 -6.15834,3.93698 -2.07452,2.16534 -4.37338,3.81534 -5.10858,3.66667 -0.7352,-0.14867 -1.90421,1.82969 -2.59779,4.39635 -0.69358,2.56667 -1.90694,5.4486 -2.69635,6.40429 -1.5399,1.86428 -3.59606,11.10674 -4.29286,19.29655 -0.23558,2.76879 -1.15615,5.91115 -2.04573,6.98302 -0.88957,1.07187 -1.27648,2.83728 -0.8598,3.92313 0.41668,1.08585 0.27016,2.27554 -0.32561,2.64374 -0.59577,0.36821 -0.80004,3.61647 -0.45395,7.21837 0.3461,3.60189 -0.022,7.66985 -0.81801,9.0399 -1.3515,2.32616 -1.44996,2.29248 -1.48782,-0.509 -0.0223,-1.65 -0.73996,-2.85 -1.5948,-2.66666 -2.65585,0.56958 -3.77374,-8.43176 -1.6719,-13.46217 1.05556,-2.52631 1.89282,-8.88951 1.89282,-14.38542 0,-5.4204 0.561,-10.89712 1.24666,-12.17051 0.68566,-1.27338 3.37627,-6.96834 5.97913,-12.65548 3.43425,-7.50368 5.92693,-11.07551 9.08668,-13.02057 10.70518,-6.58985 20.55267,-6.63748 27.51566,-0.13308 4.13806,3.86553 4.72439,5.44235 6.25717,16.82723 0.89755,6.66666 0.89755,6.66666 2.50862,1.30539 5.13113,-17.07523 25.87356,-34.044 44.45172,-36.36466 7.54758,-0.94279 7.54758,-0.94279 8.4238,-6.2751 1.7894,-10.88952 2.57023,-63.67793 0.97042,-65.60559 -1.14779,-1.383 -1.14366,-2.22291 0.0167,-3.38322 0.84892,-0.84892 1.54349,-4.39526 1.54349,-7.88075 0,-3.4855 0.66957,-7.8068 1.48793,-9.6029 0.97704,-2.14439 1.06772,-4.52624 0.26408,-6.93716 -0.74636,-2.23907 -0.73693,-7.05781 0.0242,-12.35094 1.10216,-7.66508 0.97026,-8.88252 -1.1286,-10.41724 -1.77693,-1.29932 -2.00934,-2.18034 -0.9211,-3.49159 1.42739,-1.7199 1.04558,-22.53908 -0.60512,-32.99624 -2.1412,-13.5639 -0.37088,-22.66667 4.40816,-22.66667 3.05405,0 4.17773,5.22381 5.03969,23.42879 0.44889,9.48083 1.09621,23.23788 1.43848,30.57121 0.34227,7.33333 1.23054,15.42937 1.97394,17.9912 1.95894,6.75073 1.6548,24.26696 -0.64837,37.34213 -1.098,6.23334 -2.01149,18.53334 -2.02999,27.33334 -0.0185,8.8 -0.49977,18.1 -1.06949,20.66666 -0.56973,2.56667 -0.81142,5.71667 -0.5371,7 0.77896,3.64408 4.81954,2.74316 7.41683,-1.65372 8.45203,-14.30814 44.90755,-42.50246 55.11803,-42.6277 6.7776,-0.0831 17.99276,-3.0852 18.73309,-5.01446 0.45062,-1.1743 1.1994,-1.34116 2.21947,-0.49458 1.03493,0.85892 5.02568,-0.51547 12.17762,-4.19388 10.17877,-5.23519 11.18524,-5.47604 23.30487,-5.57691 13.69484,-0.11397 20.80771,1.86655 19.44618,5.41463 -0.42347,1.10356 -0.22043,3.03325 0.4512,4.28821 2.91012,5.43762 2.98857,13.68334 0.18687,19.64368 -1.513,3.21879 -2.75092,7.05425 -2.75092,8.52325 0,1.469 -1.74974,4.22994 -3.88831,6.13541 -2.13857,1.90548 -4.61136,5.21011 -5.49509,7.34362 -0.88373,2.13352 -2.04638,3.87912 -2.58366,3.87912 -0.53728,0 -2.66481,1.56433 -4.72784,3.47628 -4.67458,4.33225 -14.09715,8.595 -21.97176,9.93999 -6.88952,1.17672 -24.74384,6.06202 -26.80061,7.33317 -0.76105,0.47036 -1.26046,3.04415 -1.10981,5.71954 0.15066,2.6754 -0.45866,6.66435 -1.35402,8.86435 -2.61205,6.41804 -2.6326,14.92564 -0.0525,21.7227 1.88582,4.968 3.56173,6.89683 8.05866,9.27487 3.12273,1.65134 7.69146,3.00243 10.15274,3.00243 2.46127,0 5.5169,0.51958 6.79029,1.15461 6.70534,3.34395 10.74456,3.83512 14.9177,1.814 2.93423,-1.42108 3.77716,-2.45565 2.79833,-3.43448 -2.4098,-2.4098 -1.55027,-3.53413 2.70177,-3.53413 2.78063,0 5.39145,-1.28889 8.10256,-4 2.2,-2.2 4.50492,-4 5.12203,-4 0.61711,0 2.44357,-2.13831 4.0588,-4.7518 1.61523,-2.6135 5.26416,-6.22102 8.10874,-8.01673 5.23479,-3.30457 6.91094,-7.23147 3.08668,-7.23147 -3.00088,0 -1.97902,-8.05909 1.37538,-10.84718 2.2994,-1.91119 2.38986,-2.46194 0.73239,-4.45907 -1.67138,-2.01388 -1.51148,-2.57026 1.37658,-4.78984 1.79718,-1.3812 3.71761,-2.52462 4.26761,-2.54093 0.55,-0.0163 1,-1.19423 1,-2.61762 0,-1.42339 0.6,-2.9588 1.33333,-3.41202 0.73334,-0.45323 1.33334,-4.41843 1.33334,-8.81157 0,-4.43072 0.87542,-9.68041 1.96594,-11.78925 2.04372,-3.95211 2.4649,-14.90127 2.62577,-68.26029 0.067,-22.20519 -0.18345,-25.14652 -2.34385,-27.53276 -2.33618,-2.5804 -2.33618,-2.66485 0,-2.47223 1.7939,0.14791 2.52456,-0.89077 2.82815,-4.02042 0.42459,-4.37701 2.80643,-6.25322 6.25732,-4.92899 2.08118,0.79863 2.1385,1.75922 2.73353,45.81551 0.18793,13.91493 2.86656,41.24599 5.35769,54.66666 0.34031,1.83334 0.90618,8.43334 1.2575,14.66667 0.35133,6.23333 1.50379,15.24704 2.56103,20.03046 2.32408,10.51504 8.65123,27.96954 10.1388,27.96954 0.5901,0 1.46826,1.8 1.95146,4 0.4832,2.2 1.41944,4 2.08054,4 0.66109,0 1.56418,1.4431 2.00687,3.20689 1.07585,4.28655 6.59561,9.32796 9.14282,8.35051 1.13198,-0.43439 2.55282,0.14964 3.20672,1.31809 1.04857,1.8737 1.49228,1.83212 4.14898,-0.38871 1.63616,-1.36773 5.05688,-6.58775 7.6016,-11.60006 4.18048,-8.23425 4.36242,-9.02938 1.88628,-8.24348 -3.50866,1.1136 -3.51671,-0.86079 -0.0164,-4.0285 2.65633,-2.40395 2.70296,-2.4008 1.87588,0.12668 -0.66473,2.03138 -0.25909,1.87103 1.87569,-0.74142 1.49812,-1.83333 3.09591,-5.73333 3.55065,-8.66667 0.45474,-2.93333 1.49792,-7.43333 2.31818,-10 0.82026,-2.56666 1.63903,-7.36666 1.81949,-10.66666 0.18046,-3.3 0.7034,-8.1 1.16208,-10.66667 2.10723,-11.79164 2.68584,-53.18815 0.77019,-55.1038 -0.66579,-0.66579 -0.64302,-2.96714 0.0531,-5.36444 0.67051,-2.30913 0.90831,-6.59843 0.52846,-9.53176 -0.37985,-2.93333 -0.98786,-10.923 -1.35113,-17.75482 -0.36327,-6.83182 -1.27903,-13.57724 -2.03502,-14.98982 -1.52079,-2.84161 -0.43475,-22.52641 1.34509,-24.3804 0.59403,-0.61877 2.16184,-0.91671 3.48402,-0.66208 2.02203,0.38941 2.46812,2.08176 2.80776,10.6519 0.22208,5.60392 1.04872,14.00185 1.83696,18.66208 0.78825,4.66023 1.71362,13.27314 2.05638,19.13981 0.48408,8.28552 2.09895,14.882 7.23403,29.54984 3.63595,10.38575 6.61082,19.47828 6.61082,20.20562 0,0.72734 1.49582,5.7299 3.32404,11.11682 1.82822,5.38691 3.32822,11.36636 3.33333,13.28766 0.0132,4.97511 7.85154,30.76398 10.11467,33.27838 1.04204,1.15774 1.89463,2.56157 1.89463,3.11961 0,0.55804 1.35,2.10877 3,3.44606 3.33233,2.70079 6.33333,1.43512 6.33333,-2.67109 0,-1.28731 0.91909,-4.54026 2.04242,-7.22876 1.12333,-2.68851 1.71354,-5.42032 1.31158,-6.0707 -0.40196,-0.65038 -0.12104,-1.55938 0.62425,-2.02 0.7453,-0.46062 1.35508,-2.28825 1.35508,-4.0614 0,-1.94099 1.28676,-4.06702 3.23357,-5.34262 1.77847,-1.16529 3.87847,-3.96866 4.66667,-6.2297 1.84236,-5.28501 1.81821,-5.47948 -0.5669,-4.56422 -2.44452,0.93805 -2.71594,-3.80417 -0.53774,-9.39537 1.65603,-4.25085 2.89213,-11.47147 5.89243,-34.42013 1.1505,-8.8 2.64164,-18.03564 3.31363,-20.52363 0.83456,-3.08988 0.72771,-5.41416 -0.33713,-7.33334 -1.95712,-3.52732 -1.72255,-36.3204 0.3539,-49.47637 2.0771,-13.16001 7.16612,-22.87207 15.64824,-29.86363 3.93393,-3.24263 7,-6.87218 7,-8.28646 0,-1.54467 0.93713,-2.51657 2.42652,-2.51657 1.33459,0 4.44265,-1.8 6.90681,-4 2.46416,-2.2 5.24241,-4 6.17389,-4 0.93149,0 2.17342,-0.79897 2.75986,-1.77549 0.58644,-0.97652 4.15386,-3.43792 7.9276,-5.46978 6.34602,-3.41682 7.22185,-3.56392 11.6612,-1.95863 8.37686,3.02911 8.08306,9.2039 -0.43798,9.2039 -2.89907,0 -5.8061,0.86118 -6.75123,2 -0.91292,1.1 -2.75816,2 -4.10053,2 -3.14422,0 -9.23281,2.76713 -9.23281,4.19612 0,0.60578 -2.02675,1.94825 -4.50389,2.98327 -2.47715,1.03502 -4.91256,2.54307 -5.41203,3.35123 -0.49947,0.80816 -1.70926,1.46938 -2.68843,1.46938 -5.55723,0 -19.37183,20.71455 -20.31266,30.45819 -1.16297,12.04414 -1.40456,48.13697 -0.36014,53.80332 0.75163,4.07788 0.55957,6.31725 -0.66369,7.73849 -2.43422,2.8282 -3.94378,12 -1.97503,12 0.92803,0 1.24152,1.19014 0.79022,3 -0.41145,1.65 -1.43607,8.7 -2.27695,15.66666 -1.53047,12.67999 -3.94857,23.18171 -9.36381,40.66667 -1.58983,5.13333 -3.18407,11.28889 -3.54275,13.67902 -0.35868,2.39013 -1.18585,4.67554 -1.83815,5.07869 -0.65231,0.40315 -1.18602,1.93051 -1.18602,3.39413 0,1.46362 -1.21412,5.32628 -2.69804,8.58369 -1.48392,3.2574 -3.26906,7.42448 -3.96699,9.26018 -1.85447,4.8776 -7.01154,4.4483 -10.91084,-0.90828 -8.06364,-11.07724 -14.15738,-25.281 -19.05752,-44.42076 -5.95178,-23.24738 -10.43264,-37.02201 -12.23907,-37.62416 -1.70845,-0.56948 -3.09139,8.19194 -1.65891,10.50974 1.65882,2.68403 0.0999,23.66112 -1.9789,26.62908 -1.22278,1.74576 -1.67375,4.42639 -1.21758,7.23746 0.39849,2.45559 0.28802,5.54092 -0.24549,6.85629 -0.53351,1.31537 -1.15884,4.64683 -1.38962,7.40324 -0.25066,2.99381 -1.83214,6.69036 -3.92785,9.18097 -2.52288,2.99827 -3.31186,5.14834 -2.80906,7.65501 1.13854,5.67608 -3.44264,19.6199 -8.5668,26.07485 -5.49876,6.92686 -13.31754,11.81671 -16.86555,10.54769 -2.80874,-1.0046 -13.64667,-9.38296 -16.09174,-12.43985 -1.73473,-2.16882 -5.9141,-10.44007 -11.76848,-23.2906 -4.17969,-9.17455 -8.4979,-23.33785 -9.1689,-30.07306 -0.2557,-2.56666 -0.81426,-6.09301 -1.24123,-7.83632 -0.42698,-1.74331 -0.16833,-4.30571 0.57478,-5.69422 1.65166,-3.08615 0.51723,-5.29141 -2.18798,-4.25333 -1.21901,0.46778 -1.69714,1.71123 -1.22725,3.19171 0.42338,1.33395 0.0476,3.8129 -0.8351,5.50877 -3.62392,6.96248 -3.94793,8.02413 -3.18372,10.43192 0.50159,1.58038 -0.21812,3.53144 -1.93662,5.24994 -3.28589,3.28588 -3.39545,4.55048 -0.6335,7.31243 1.75654,1.75654 1.8507,2.92089 0.57377,7.09524 -4.17095,13.63518 -10.49188,25.31744 -18.00848,33.28304 -3.66666,3.8857 -8.0623,8.86023 -9.76807,11.05453 -1.70578,2.19429 -3.77722,3.98963 -4.60319,3.98963 -0.82598,0 -3.33035,1.76075 -5.56526,3.91278 -2.23491,2.15204 -7.54709,5.73767 -11.80485,7.96808 -7.09549,3.71694 -8.53168,3.99657 -17.2138,3.35145 -10.29429,-0.7649 -19.39761,-4.93106 -24.37816,-11.15674 -1.46667,-1.83333 -4.63233,-9.04039 -7.03481,-16.0157 -3.88138,-11.2691 -4.28975,-13.7992 -3.66467,-22.70446 1.28897,-18.36313 2.35152,-27.33439 3.49883,-29.54104 0.625,-1.2021 1.45291,-5.1021 1.83978,-8.66667 0.97148,-8.95102 2.87917,-16.53267 4.59056,-18.24406 0.79034,-0.79034 1.43698,-2.45668 1.43698,-3.70299 0,-1.24631 2.1,-5.3866 4.66666,-9.20065 4.95961,-7.36994 5.81537,-10.05944 2.83714,-8.91658 -1.00625,0.38613 -4.58363,1.11506 -7.94974,1.61984 -6.5359,0.98012 -24.91481,11.79541 -32.22073,18.96068 -2.2,2.15764 -5.02438,4.28727 -6.2764,4.7325 -1.25202,0.44522 -3.74456,3.13522 -5.53898,5.97777 -1.79442,2.84255 -5.49088,7.22121 -8.21435,9.73036 -8.76285,8.07328 -9.65021,9.31132 -11.22106,15.65562 -0.84974,3.43189 -2.11593,8.08241 -2.81376,10.33447 -0.69783,2.25207 -1.26285,6.75207 -1.25559,10 0.0129,5.75901 -4.16464,29.09239 -6.93127,38.71448 -1.45609,5.06412 -0.42119,11.09726 1.68074,9.7982 0.68053,-0.4206 1.23734,1.03026 1.23734,3.22412 0,2.77825 -0.78593,4.23828 -2.5896,4.81074 -2.11769,0.67213 -2.56316,1.98257 -2.44451,7.19106 0.18154,7.97006 -0.75948,9.50007 -5.84297,9.50007 -2.78413,0 -5.22285,1.2523 -7.78959,4 -4.54611,4.86662 -9.77474,5.11219 -18.929,0.88902 z m 12.26233,-33.25322 c 2.56667,-0.91157 5.48466,-2.17996 6.48442,-2.81866 3.05735,-1.95319 6.60839,-11.68744 7.59405,-20.81714 0.51462,-4.76667 1.46958,-9.34271 2.12214,-10.16899 0.65255,-0.82627 1.396,-5.32627 1.65211,-10 0.25611,-4.67372 0.90821,-9.54768 1.44912,-10.83101 0.82694,-1.96196 0.24969,-2.33333 -3.62689,-2.33333 -10.65511,0 -23.23142,7.48755 -27.54585,16.39998 -4.14172,8.55565 -4.30025,25.24931 -0.30985,32.62757 0.90057,1.66516 1.21799,3.70618 0.70538,4.53561 -0.95218,1.54066 2.84752,5.11968 5.39688,5.08343 0.7765,-0.011 3.51183,-0.7659 6.07849,-1.67746 z m 119.06597,-80.89188 c 10.03178,-1.59143 25.00079,-7.49572 29.4403,-11.61226 1.92155,-1.78177 3.52025,-2.7653 3.55266,-2.18562 0.0324,0.57968 1.24675,-1.19604 2.69852,-3.94604 1.45178,-2.75 3.56067,-5 4.68643,-5 1.12576,0 1.67601,0.6 1.22279,1.33333 -1.15913,1.87552 0.89271,1.58301 3.66667,-0.52272 3.25312,-2.46948 2.91499,-3.47728 -1.16667,-3.47728 -3.24889,0 -3.43387,-0.31089 -2.57833,-4.33333 0.50692,-2.38333 1.09921,-6.73333 1.3162,-9.66667 0.21699,-2.93333 0.80299,-6.53333 1.30223,-8 1.29366,-3.80056 -3.45639,-6.69938 -7.17369,-4.37789 -2.21392,1.38261 -2.92523,1.24586 -4.46372,-0.85815 -1.4751,-2.01731 -2.92956,-2.35538 -7.49747,-1.7427 -3.11703,0.41808 -6.95836,1.88667 -8.53628,3.26352 -1.57792,1.37685 -4.59112,3.36605 -6.696,4.42044 -2.49529,1.24996 -4.96447,4.4037 -7.09559,9.0628 -3.68686,8.06031 -12.27686,22.00038 -13.97513,22.6792 -0.61536,0.24596 -0.76338,1.02235 -0.32893,1.7253 0.43444,0.70295 -0.16182,2.73059 -1.32503,4.50587 -1.16321,1.77529 -2.11493,5.11885 -2.11493,7.43014 0,3.89835 0.26525,4.14181 3.66667,3.36555 2.01667,-0.46024 7.14635,-1.38881 11.3993,-2.06349 z m 477.64856,85.5676 c -1.8278,-2.762 -3.7038,-7.112 -4.1688,-9.66667 -0.465,-2.55467 -1.7347,-7.34485 -2.8217,-10.64485 -2.7543,-8.36229 -3.3361,-26.73022 -1.1353,-35.83796 3.5988,-14.89292 5.9712,-22.9113 7.8413,-26.50269 3.7388,-7.18006 7.3993,-15.71734 8.2918,-19.33861 0.4988,-2.0236 1.4404,-4.00901 2.0925,-4.41203 0.6521,-0.40301 1.1893,-1.74735 1.1938,-2.9874 0,-1.24005 0.9496,-4.05464 2.1001,-6.25464 2.3459,-4.48598 6.3869,-15.31129 9.4566,-25.33334 1.1232,-3.66666 4.3361,-11.46666 7.1399,-17.33333 4.0336,-8.44015 6.6872,-11.99532 12.7125,-17.03188 7.8832,-6.58969 10.4909,-7.06699 15.3544,-2.81041 1.1577,1.01326 3.0795,1.84229 4.2706,1.84229 6.1623,0 8.573,2.77895 10.6596,12.28783 1.454,6.62619 1.6764,10.43117 0.7628,13.05182 -1.7536,5.03042 -0.9101,16.30518 1.2736,17.02444 1.1641,0.38341 1.6045,-0.46311 1.3334,-2.56244 -0.2228,-1.72424 0.195,-3.43498 0.9283,-3.80165 0.7841,-0.39203 1.6988,3.02891 2.2204,8.3043 0.4878,4.93404 1.4838,10.93404 2.2133,13.33334 0.7295,2.3993 1.3021,5.26236 1.2725,6.36236 -0.132,4.89637 1.6339,24.21619 3.0468,33.33333 0.8523,5.5 1.515,11.10134 1.4726,12.44741 -0.042,1.34608 1.6222,4.79317 3.6991,7.6602 2.0769,2.86704 4.1706,7.3156 4.6528,9.88569 0.4821,2.5701 2.1994,6.14453 3.8162,7.94317 1.6168,1.79865 4.5751,5.31443 6.574,7.81286 3.1252,3.90625 4.7005,4.66789 11.2455,5.43713 4.1862,0.492 8.2507,1.39529 9.0324,2.00731 0.7816,0.61202 4.0077,1.44161 7.1692,1.84354 5.1308,0.6523 5.9055,0.38527 7.214,-2.48659 0.9049,-1.98601 2.592,-3.21738 4.4081,-3.21738 4.0263,0 10.8195,-10.02826 8.6026,-12.69945 -2.1492,-2.58963 -0.4146,-7.3864 2.295,-6.34661 1.7414,0.66821 1.9682,0.16783 1.2397,-2.73471 -0.6322,-2.51897 -0.3738,-3.55257 0.8882,-3.55257 2.2199,0 7.6043,-9.3667 7.6043,-13.22845 0,-2.50443 -0.3553,-2.6752 -2.8209,-1.35565 -2.2502,1.20424 -2.7,1.14629 -2.2229,-0.28642 0.329,-0.98788 1.7484,-2.01071 3.1543,-2.27295 4.4573,-0.83145 5.6996,-2.8466 6.5444,-10.6165 0.4529,-4.16535 1.7255,-9.22459 2.8279,-11.24276 1.1025,-2.01818 1.6656,-4.21783 1.2513,-4.88812 -0.4142,-0.67028 -0.158,-2.78419 0.5695,-4.69756 0.7274,-1.91337 1.9646,-7.51372 2.7493,-12.44522 0.7846,-4.9315 2.2188,-10.18089 3.187,-11.66531 0.9682,-1.48442 2.2025,-5.98442 2.7429,-10 0.5403,-4.01558 1.4974,-7.94094 2.1267,-8.72302 2.0393,-2.53437 1.6169,-9.05981 -1.1384,-17.58451 -1.4825,-4.5869 -2.1575,-8.67231 -1.5,-9.07869 2.1954,-1.35683 1.2294,-4.8223 -1.5465,-5.54822 -1.6587,-0.43376 -2.4596,-1.45332 -2.027,-2.5805 0.3933,-1.02489 -0.1652,-5.24295 -1.2411,-9.37348 -1.0758,-4.13053 -2.0592,-10.56313 -2.1853,-14.29468 -0.158,-4.67579 -0.9352,-7.28633 -2.5006,-8.39873 -2.8912,-2.05464 -4.0804,-9.2734 -2.6198,-15.90293 0.624,-2.8323 1.291,-8.74963 1.4822,-13.14963 0.4394,-10.11068 2.7683,-20.21811 8.0671,-35.01114 4.2183,-11.77659 12.0204,-25.32498 15.3111,-26.58775 0.9839,-0.37753 1.7888,-1.50839 1.7888,-2.51302 0,-2.89059 5.9725,-6.11311 9.629,-5.19539 4.8714,1.22264 6.6856,10.3983 6.6051,33.40671 -0.037,10.57018 -0.4518,19.84085 -0.9219,20.60149 -0.4701,0.76064 -1.3843,6.91411 -2.0315,13.67438 -0.6472,6.76026 -2.4698,17.39139 -4.0501,23.62472 -1.5803,6.23333 -3.0942,14.80502 -3.3642,19.04819 -0.2699,4.24317 -1.0642,8.78613 -1.7649,10.09548 -0.7007,1.30934 -1.5844,7.43766 -1.9638,13.61848 -0.7016,11.43194 -2.7881,19.90452 -4.9018,19.90452 -0.6434,0 -0.534,1.65 0.2433,3.66666 0.7773,2.01667 2.2161,7.56667 3.1973,12.33334 3.6839,17.89589 4.6616,21.04986 6.7772,21.86167 1.0338,0.39672 1.8796,1.54714 1.8796,2.5565 0,1.00935 1.1323,2.85991 2.5163,4.11234 1.3839,1.25243 4.1481,5.69542 6.1426,9.87332 3.8495,8.06316 8.7523,16.79129 13.6695,24.33483 1.6472,2.52707 2.9972,5.1957 3,5.93029 0,0.7346 2.855,2.79626 6.3383,4.58149 3.4833,1.78523 7.6968,4.45148 9.3634,5.92501 2.3594,2.08624 5.1262,2.72915 12.5023,2.90514 9.7852,0.23346 9.0716,0.47271 27.2711,-9.14412 1.542,-0.81477 3.8212,-3.83032 5.0649,-6.70121 1.2438,-2.87089 3.9751,-7.39828 6.0697,-10.06087 2.0945,-2.66258 4.2305,-6.87094 4.7467,-9.35191 0.643,-3.09093 1.2805,-3.95733 2.0252,-2.75241 0.8934,1.4456 1.4854,1.42763 3.3273,-0.10101 3.714,-3.08234 8.0916,-16.65337 5.8239,-18.05485 -2.0143,-1.24489 -1.3333,-2.90024 1.4977,-3.64056 2.4353,-0.63684 2.6159,-1.44687 1.8921,-8.48884 -0.4899,-4.76598 -0.3339,-7.12864 0.4022,-6.09271 0.894,1.25821 1.691,0.77488 3.1079,-1.88485 1.4862,-2.78976 1.5388,-3.7001 0.2389,-4.13655 -2.2788,-0.76513 -2.0937,-3.06442 0.3931,-4.88281 1.1328,-0.82835 2.0264,-2.69449 1.9857,-4.14699 -0.1747,-6.23294 -0.06,-8.24686 0.7414,-13.0127 0.69,-4.10317 1.1906,-4.75351 2.6969,-3.50341 3.3539,2.78351 2.1456,-3.16611 -1.425,-7.01693 -1.8011,-1.94236 -5.4123,-9.13623 -8.025,-15.98638 -2.6127,-6.85015 -5.3541,-13.35482 -6.0919,-14.45482 -0.7379,-1.1 -2.5385,-4.51333 -4.0014,-7.58518 -1.4629,-3.07184 -3.8465,-5.96183 -5.297,-6.4222 -1.4505,-0.46036 -2.9925,-2.44703 -3.4268,-4.41482 -0.4342,-1.96779 -1.3653,-5.47699 -2.0692,-7.79823 -3.4686,-11.4391 0.4719,-24.08416 12.0282,-38.59817 2.8529,-3.5831 5.1055,-7.04155 5.0057,-7.68543 -0.1,-0.64389 1.1613,-2.06218 2.8023,-3.15175 2.6804,-1.77972 3.0708,-1.75374 3.8419,0.25573 0.5569,1.45126 -0.1397,2.93583 -1.9836,4.22735 -1.5631,1.09482 -2.8419,2.47046 -2.8419,3.05698 0,0.58652 -3.0629,6.38911 -6.8063,12.89465 -6.3379,11.01426 -6.7402,12.24321 -5.8464,17.858 0.528,3.31636 1.1022,7.52974 1.276,9.36307 0.4377,4.61696 2.1495,9.33334 3.3874,9.33334 0.5682,0 1.9933,2.4 3.167,5.33333 1.1737,2.93333 2.5889,5.33394 3.1448,5.33469 1.8215,0.002 8.3441,12.97454 8.3441,16.5947 0,4.21533 3.4747,11.40394 5.5122,11.40394 0.9531,0 1.0692,-1.24587 0.3417,-3.66666 -0.606,-2.01667 -1.0241,-6.66667 -0.929,-10.33334 0.095,-3.66666 0.2686,-10.55668 0.3857,-15.31115 0.117,-4.75446 0.8434,-9.40446 1.6143,-10.33333 0.9804,-1.1813 0.9779,-2.19946 -0.01,-3.3879 -1.5631,-1.88333 -0.5773,-12.60786 1.2635,-13.74548 1.9437,-1.20127 1.2979,-4.52722 -0.7281,-3.74978 -1.5101,0.57948 -1.6765,-0.18733 -0.8426,-3.88458 0.5714,-2.53362 1.4582,-5.28499 1.9707,-6.11416 0.5125,-0.82917 -0.027,-3.43029 -1.1998,-5.78027 -1.2539,-2.51358 -1.8084,-5.74342 -1.3469,-7.8449 0.8779,-3.99692 -2.4113,-13.18178 -4.7205,-13.18178 -0.8387,0 -1.3055,-1.60249 -1.068,-3.66667 0.3447,-2.99614 1.0118,-3.60126 3.6479,-3.309 1.7743,0.19671 3.948,0.95678 4.8303,1.68903 1.7095,1.41878 5.8401,26.83343 6.1685,37.95331 0.3063,10.37377 -1.4446,35.55884 -2.7809,40 -2.3147,7.6927 -2.8545,29.72907 -0.8587,35.05351 1.0198,2.72057 2.2114,6.57531 2.6481,8.56609 0.4939,2.25185 1.4548,3.36601 2.5428,2.94848 0.9918,-0.38058 2.4226,0.80741 3.305,2.74417 3.5004,7.68254 15.261,20.53526 20.767,22.6954 11.1882,4.38949 12.8186,5.36261 12.8186,7.65116 0,1.28765 0.6,2.34119 1.3333,2.34119 0.7333,0 1.3333,-0.64044 1.3333,-1.42319 0,-2.03585 5.4007,-0.15217 8.9948,3.13725 1.6471,1.50749 3.3919,2.34374 3.8773,1.85832 0.4854,-0.48542 1.6615,-0.23613 2.6135,0.55397 4.0846,3.38991 6.14,-2.78682 2.3288,-6.99819 -1.2036,-1.32988 -2.2805,-4.97191 -2.3967,-8.10498 -0.4936,-13.31154 4.5614,-35.68985 8.062,-35.68985 0.8908,0 4.4845,-4.05 7.9861,-9 3.5016,-4.95 7.0043,-9.39744 7.7837,-9.88319 0.7795,-0.48576 2.9172,-2.19918 4.7505,-3.80761 3.9742,-3.4866 8.3362,-5.3092 12.7066,-5.3092 1.7967,0 3.8037,-1.1287 4.5773,-2.57431 1.1297,-2.11076 2.0881,-2.3706 5.3224,-1.44302 7.3797,2.11648 13.3801,-0.78612 12.3851,-5.99114 -0.379,-1.98249 -0.018,-3.32486 0.895,-3.32486 2.2208,0 3.3153,3.74881 1.6724,5.72836 -1.5901,1.91598 -0.4405,4.50583 2.2925,5.16473 1.8901,0.45566 2.6721,-2.19632 3.3278,-11.28409 0.2006,-2.78172 1.3953,-6.08172 2.6547,-7.33334 2.1625,-2.14914 2.2416,-1.97151 1.4223,3.19499 -0.6869,4.33166 -0.4222,5.64154 1.2715,6.29148 1.4511,0.55684 2.1407,0.0838 2.1441,-1.47065 0.01,-3.23989 5.1212,-11.24355 6.6003,-10.32944 0.6769,0.41839 1.7177,-0.002 2.3128,-0.934 4.0506,-6.34471 11.271,-6.19002 10.4593,0.22408 -0.3985,3.14832 0.01,3.77738 2.4051,3.74124 7.4096,-0.11161 13.7007,1.72588 16.2175,4.73681 1.4667,1.7546 3.7167,3.56426 5,4.02149 1.2833,0.45722 2.3333,2.05014 2.3333,3.53982 0,3.7999 2.195,3.36912 4.8821,-0.95815 6.8922,-11.09897 9.3137,-11.745 20.4513,-5.45625 1.1,0.62111 3.2246,1.66535 4.7214,2.32053 3.3518,1.46715 6.6168,5.24197 5.5,6.35878 -0.454,0.4539 -1.2036,-0.1606 -1.666,-1.36556 -0.4624,-1.20496 -1.3765,-2.19083 -2.0314,-2.19083 -1.9382,0 -1.3567,4.86901 0.7946,6.65448 1.0919,0.90622 1.6783,2.14451 1.303,2.75177 -0.3753,0.60726 0.9813,0.98927 3.0146,0.84893 3.5307,-0.24369 3.6971,0.0149 3.6971,5.74482 0,5.83233 -0.1077,5.98732 -3.8554,5.54651 -3.1463,-0.37008 -3.6981,-0.0435 -3,1.77571 0.4705,1.22607 0.8554,2.49157 0.8554,2.81223 0,0.32066 1.4115,0.22876 3.1366,-0.20422 3.1366,-0.78724 3.1366,-0.78724 3.3193,13.90458 0.1038,8.34711 -0.3804,15.03986 -1.1213,15.49775 -0.7597,0.46951 -0.9477,-0.12259 -0.4505,-1.41842 0.734,-1.91278 0.4507,-2.00873 -2.0229,-0.68494 -2.4925,1.33395 -2.7621,2.28897 -2.0201,7.15511 0.9291,6.09338 2.7729,9.34499 4.6433,8.18898 0.6503,-0.40187 1.1823,-1.93067 1.1823,-3.39734 0,-1.46667 0.6,-2.29584 1.3333,-1.84262 0.7333,0.45322 1.3333,2.31843 1.3333,4.1449 0,4.36464 3.5855,11.18843 5.8788,11.18843 0.9956,0 2.146,1.28406 2.5564,2.85346 0.6389,2.44307 1.4283,2.74276 5.4889,2.08382 2.9209,-0.474 4.7426,-0.22997 4.7426,0.63532 0,0.77272 1.4699,1.12395 3.2665,0.78051 2.1831,-0.41732 3.5414,0.084 4.0953,1.51123 0.7584,1.95458 0.9619,1.95525 2.4001,0.008 2.1946,-2.97147 18.1928,-2.87128 18.3318,0.11482 0.083,1.78298 0.1973,1.78445 1,0.0129 1.5441,-3.40746 4.8382,-8 5.7382,-8 0.4714,0 1.1709,1.2 1.5544,2.66667 0.3836,1.46667 1.3324,2.66667 2.1086,2.66667 0.7762,0 2.0535,-1.2 2.8384,-2.66667 1.1391,-2.1284 1.014,-2.66667 -0.6197,-2.66667 -1.1258,0 -2.0469,-0.6 -2.0469,-1.33333 0,-0.73333 1.4523,-1.33333 3.2274,-1.33333 2.518,0 3.4249,-0.89945 4.1262,-4.09241 0.8348,-3.80084 1.0652,-3.94188 3.2335,-1.97958 2.1402,1.93685 2.6214,1.88729 5.7772,-0.59511 1.8935,-1.48936 4.1167,-4.75056 4.9407,-7.2471 0.8239,-2.49654 2.3784,-5.26981 3.4544,-6.16283 1.0761,-0.89302 2.9374,-3.69085 4.1363,-6.2174 1.1989,-2.52655 3.504,-5.09716 5.1224,-5.71247 1.6725,-0.63587 3.8816,-3.46559 5.1181,-6.55593 1.4214,-3.5524 3.0108,-5.43717 4.5851,-5.43717 2.5915,0 5.2972,-5.84522 6.2723,-13.54988 0.3071,-2.42655 1.2002,-4.62585 1.9847,-4.88734 2.4754,-0.82514 6.6883,-10.59455 6.6883,-15.50967 0,-4.10298 0.4214,-4.71978 3.2243,-4.71978 1.7734,0 4.1734,0.36419 5.3334,0.80932 2.3057,0.88479 2.8927,6.54897 0.8119,7.83495 -0.7134,0.44091 -1.9292,3.14904 -2.7017,6.01807 -0.7726,2.86902 -2.9635,7.06903 -4.8688,9.33335 -1.9053,2.26431 -3.1706,4.41058 -2.8117,4.76949 1.273,1.27297 -1.6477,12.81464 -4.1326,16.33101 -1.3878,1.96376 -2.9419,5.50418 -3.4536,7.86759 -0.6797,3.13875 -4.201,7.27213 -13.0629,15.33334 -6.6728,6.06992 -15.1788,13.88093 -18.902,17.3578 -3.7233,3.47687 -9.3519,8.71004 -12.508,11.62926 -3.1561,2.91923 -10.3351,7.57452 -15.9534,10.34509 -9.5942,4.73126 -10.916,5.02613 -21.7495,4.85193 -14.8467,-0.23872 -17.6439,-1.93442 -20.8156,-12.61849 -2.448,-8.2464 -5.3786,-9.96441 -4.6578,-2.73055 0.9608,9.64191 -5.8915,2.2089 -7.88,-8.54783 -0.7996,-4.32512 -2.2616,-9.42599 -3.2489,-11.33526 -3.5555,-6.87559 -6.1244,-21.616 -5.3731,-30.83102 0.3997,-4.9034 0.2169,-10.29355 -0.4062,-11.9781 -1.133,-3.06282 -1.133,-3.06282 -2.0844,-0.0654 -1.0208,3.21638 -3.426,2.80561 -3.426,-0.58511 0,-1.12922 0.9849,-4.12883 2.1888,-6.66579 1.6403,-3.45662 1.8074,-4.99415 0.6667,-6.13484 -0.8372,-0.8372 -1.5222,-2.27127 -1.5222,-3.18682 0,-0.91555 -1.5111,-3.2951 -3.3579,-5.28789 -3.259,-3.5165 -3.4149,-3.54799 -5.2909,-1.06869 -1.0632,1.405 -1.9521,3.88344 -1.9755,5.50764 -0.023,1.6242 -1.2364,3.59211 -2.6958,4.37314 -1.4593,0.78103 -2.5883,1.85214 -2.5087,2.38025 0.08,0.5281 0,1.56019 -0.1683,2.29352 -0.1721,0.73333 -0.3932,4.03333 -0.4913,7.33333 -0.1674,5.63362 -0.4225,6.02662 -4.1783,6.43593 -2.2,0.23976 -4.5006,0.92036 -5.1124,1.51244 -2.4878,2.40748 -6.162,-0.28322 -6.9576,-5.09528 -0.4413,-2.6692 -1.3489,-6.57201 -2.0168,-8.67291 -0.668,-2.10091 -0.883,-4.35628 -0.4778,-5.01193 1.2047,-1.94932 -0.7968,-6.50158 -2.8586,-6.50158 -2.2448,0 -2.3562,-0.67512 -0.6402,-3.88151 1.8808,-3.51427 -1.8548,-8.30635 -5.9029,-7.5723 -4.5655,0.82789 -7.4839,2.6633 -12.4581,7.83523 -3.4658,3.60341 -4.6428,6.2088 -5.4318,12.02313 -0.5541,4.08257 -1.6306,8.21169 -2.3923,9.17582 -0.7617,0.96413 -1.7467,4.96649 -2.1888,8.89413 -0.4421,3.92764 -1.3755,7.83005 -2.0743,8.67202 -0.6988,0.84197 -1.4695,3.62844 -1.7128,6.19217 -0.3734,3.93547 -0.9107,4.61162 -3.4506,4.34221 -2.4954,-0.26469 -3.6892,1.12166 -7,8.12912 -2.1954,4.64653 -3.9916,9.0501 -3.9916,9.78572 0,2.34701 -7.9472,12.40426 -9.8017,12.40426 -0.9818,0 -2.8087,1.13113 -4.0598,2.51363 -2.0854,2.30425 -9.1757,4.83656 -11.9721,4.27578 -0.6418,-0.1287 -2.1418,0.59984 -3.3333,1.61896 -3.693,3.15857 -6.5568,3.55781 -14.3272,1.99728 -5.7741,-1.1596 -8.1037,-1.13227 -10.1067,0.11857 -1.4315,0.89404 -5.6074,1.98138 -9.2797,2.4163 -6.0573,0.7174 -6.9884,0.4547 -10.0355,-2.83148 -1.8473,-1.99224 -4.1969,-3.30062 -5.2214,-2.9075 -1.0244,0.39312 -1.8626,0.18499 -1.8626,-0.46251 0,-1.10276 -21.2386,-12.01588 -23.588,-12.12031 -0.5933,-0.0264 -2.8787,-1.5947 -5.0787,-3.48517 -2.4565,-2.11092 -3.0532,-3.11972 -1.5463,-2.61439 3.1586,1.05925 4.9649,-0.079 4.0224,-2.53488 -0.7167,-1.86781 -9.7923,-8.18491 -11.1428,-7.75597 -0.3666,0.11646 -0.7925,-1.53741 -0.9463,-3.67528 -0.1538,-2.13787 -1.7739,-5.49845 -3.6001,-7.46797 -3.3205,-3.58094 -3.3205,-3.58094 -2.7818,2.30379 0.2962,3.2366 -0.063,8.29817 -0.7974,11.24794 -0.7348,2.94977 -2.2315,8.96321 -3.326,13.36321 -1.0946,4.4 -1.9626,9.56518 -1.9291,11.47819 0.034,1.913 -1.049,4.913 -2.4057,6.66666 -1.3567,1.75367 -2.8629,5.28848 -3.3471,7.85515 -1.2331,6.53642 -11.498,26.55405 -14.4181,28.11684 -1.3314,0.71255 -3.3424,3.07776 -4.4688,5.25602 -1.1264,2.17826 -2.8922,3.96047 -3.924,3.96047 -1.0317,0 -2.2187,1.05 -2.6376,2.33334 -1.2824,3.92787 -14.196,11.92641 -20.7513,12.85308 -5.1941,0.73425 -22,1.3344 -22,0.78564 0,-0.10686 -1.2488,-0.33655 -2.7751,-0.51044 -1.5263,-0.17389 -4.8829,-1.92389 -7.4592,-3.88889 -2.5762,-1.965 -5.5965,-3.57273 -6.7117,-3.57273 -2.6913,0 -9.054,-5.07758 -9.054,-7.22525 0,-3.6296 -4.3997,-10.24629 -8.0779,-12.14837 -3.5157,-1.81802 -10.5888,-13.93258 -10.5888,-18.13609 0,-2.79288 -10.5168,-23.82362 -11.9135,-23.82362 -0.7809,0 -1.429,-1.35 -1.4402,-3 -0.026,-3.8756 -2.5611,-7.71011 -3.5256,-5.33333 -0.3719,0.91666 -1.5962,1.66666 -2.7206,1.66666 -1.4447,0 -1.8213,0.85328 -1.2837,2.90881 1.07,4.09201 -4.4341,28.11913 -6.8455,29.8824 -1.3473,0.9852 -1.7439,2.71629 -1.2218,5.3337 0.5294,2.65436 -0.9158,8.70542 -4.5876,19.20843 -2.9482,8.43333 -5.9621,16.46151 -6.6974,17.8404 -0.7354,1.37889 -1.6168,4.04989 -1.9587,5.93555 -0.559,3.08267 -8.6166,15.22567 -14.7723,22.26236 -4.1288,4.71964 -12.0278,7.66758 -17.496,6.52965 -2.6787,-0.55743 -5.6058,-0.89031 -6.5046,-0.73973 -0.8989,0.15058 -3.4665,-0.6737 -5.7059,-1.83172 -2.2393,-1.15802 -4.6965,-1.71923 -5.4604,-1.24714 -0.7639,0.47209 -4.0462,0.45985 -7.2942,-0.0272 -4.3189,-0.64766 -5.9053,-1.49382 -5.9053,-3.1498 0,-1.24533 -1.2,-3.01365 -2.6667,-3.9296 -1.4666,-0.91595 -2.6666,-2.58755 -2.6666,-3.71467 0,-1.12712 -1.4241,-3.47342 -3.1647,-5.214 -3.5592,-3.55917 -11.6835,-22.58878 -14.8204,-34.71409 -1.1384,-4.4 -2.4417,-16.4 -2.8963,-26.66667 -0.9407,-21.24401 -3.1668,-28.40975 -8.7019,-28.0114 -1.7728,0.12758 -3.7835,1.59401 -4.7304,3.44998 -1.4804,2.90149 -1.649,2.4015 -1.6667,-4.94199 -0.013,-5.42677 0.6121,-8.69433 1.8617,-9.73141 2.0449,-1.69717 4.2398,0.21482 2.8423,2.47602 -1.2896,2.08663 1.537,2.85462 3.1874,0.86602 1.0181,-1.22674 1.2341,-4.21828 0.6322,-8.75552 -0.7397,-5.576 -1.5154,-7.12063 -4.0621,-8.0889 -1.7756,-0.67509 -3.1478,-2.29525 -3.1478,-3.71665 0,-1.38592 -1.2387,-4.09467 -2.7528,-6.01945 -1.514,-1.92477 -2.6449,-4.55568 -2.5131,-5.84647 0.4929,-4.82688 -0.1412,-5.68023 -4.2209,-5.68023 -7.3644,0 -17.0028,13.82377 -21.8467,31.33333 -3.7371,13.50874 -8.3154,24.92634 -18.178,45.33334 -2.8354,5.86666 -5.1552,11.46087 -5.1552,12.43157 0,0.9707 -1.5262,6.31151 -3.3916,11.86845 -6.5836,19.61221 -6.8723,37.56143 -0.928,57.69998 2.7985,9.48062 3.7911,10.67635 8.8162,10.61942 5.608,-0.0635 8.7787,-2.05651 15.834,-9.95276 8.5127,-9.52715 13.5483,-19.31507 18.1783,-35.33333 2.2256,-7.7 5.482,-18.5 7.2364,-24 1.7545,-5.5 4.5431,-16 6.1969,-23.33333 3.4639,-15.35883 6.609,-26 7.6847,-26 0.4102,0 1.5353,1.05 2.5001,2.33333 3.127,4.15905 -0.01,23.72538 -7.636,47.66996 -2.1034,6.60182 -3.8243,12.80718 -3.8243,13.7897 0,0.98252 -1.2,3.31195 -2.6667,5.17651 -1.4666,1.86457 -2.6666,5.38699 -2.6666,7.82761 0,10.11297 -12.6934,33.5917 -22.4889,41.59735 -8.0404,6.57115 -12.1986,8.2722 -20.2216,8.2722 -6.1373,0 -6.811,-0.34142 -9.9083,-5.02181 z m 430.8425,-127.74699 c 0.4436,-1.15618 2.0748,-2.59263 3.6248,-3.19211 1.8439,-0.71316 3.9239,-4.01967 6.0166,-9.56453 1.7592,-4.661 4.3092,-10.06718 5.6667,-12.01372 1.3575,-1.94654 2.4682,-4.49654 2.4682,-5.66666 0,-1.17013 0.8878,-2.12751 1.9729,-2.12751 1.0851,0 3.1851,-2.3761 4.6666,-5.28022 3.2386,-6.34804 3.2724,-6.71978 0.6121,-6.71978 -1.7235,0 -1.9236,-1.0898 -1.1629,-6.33333 1.1124,-7.66769 2.4714,-10.49238 5.9418,-12.34969 3.0903,-1.65389 3.5918,-4.63569 0.5857,-3.48211 -1.1278,0.43276 -2.3376,0.0386 -2.6885,-0.87583 -0.4124,-1.07467 -3.4264,-1.64998 -8.5225,-1.62679 -8.2963,0.0378 -11.3157,1.31062 -8.0333,3.3865 1.4224,0.89957 0.6402,1.24603 -2.8469,1.26083 -6.748,0.0287 -15.5375,7.11681 -20.1105,16.21801 -1.972,3.92466 -5.1225,12.12429 -7.0011,18.2214 -2.8537,9.26206 -3.1454,11.56506 -1.773,14 0.9034,1.60289 1.7806,3.81434 1.9493,4.91434 1.5655,10.2083 2.2704,11.18906 8.3337,11.59507 3.2123,0.21511 6.1436,0.69421 6.5141,1.06468 1.2947,1.29475 2.986,0.65663 3.7862,-1.42855 z m -237.6997,-49.57401 c 1.5809,-13.97378 5.9113,-38.30528 7.5326,-42.32385 1.7269,-4.28035 2.2892,-9.69501 1.1914,-11.47128 -0.5587,-0.90401 -0.1407,-2.97926 0.9289,-4.61167 1.1869,-1.81144 1.6108,-4.29864 1.0877,-6.3827 -0.4714,-1.87807 0.1462,-9.38929 1.3725,-16.69158 1.9174,-11.41847 2.1964,-27.36432 0.7789,-44.50944 -0.045,-0.55 -0.8699,-1 -1.832,-1 -2.2909,0 -6.5519,5.85657 -10.2405,14.07524 -1.6271,3.62529 -3.7838,8.39143 -4.7927,10.59143 -2.6334,5.74249 -7.5337,24.55939 -7.7411,29.72555 -0.097,2.41573 -0.8811,4.82784 -1.7426,5.36025 -0.8786,0.54306 -1.3039,2.71224 -0.9686,4.94111 0.3287,2.1852 0.8611,9.07309 1.183,15.30642 0.322,6.23333 1.4527,14.63333 2.5126,18.66667 1.06,4.03333 2.3403,10.03333 2.845,13.33333 0.5048,3.3 1.4402,8.1 2.0787,10.66667 0.6385,2.56666 1.4996,6.31666 1.9136,8.33333 1.2287,5.98543 2.964,4.198 3.8926,-4.00948 z"
       id="path2" />
  </g>
</svg>
