{"accessors":[{"bufferView":0,"componentType":5125,"count":708,"max":[275.0],"min":[0.0],"type":"SCALAR"},{"bufferView":1,"componentType":5126,"count":276,"max":[0.1777999997138977,0.09779000282287598,4.336808689942018e-19],"min":[-8.673617379884036e-19,0.0,-0.24764999747276307],"type":"VEC3"},{"bufferView":2,"componentType":5126,"count":276,"max":[1.0,1.0,1.0],"min":[-1.0,-1.0,-1.0],"type":"VEC3"},{"bufferView":3,"componentType":5125,"count":108,"max":[52.0],"min":[0.0],"type":"SCALAR"},{"bufferView":4,"componentType":5126,"count":53,"max":[0.003809999907389283,0.09779000282287598,0.0],"min":[0.0,0.003809999907389283,-0.24383999407291413],"type":"VEC3"},{"bufferView":5,"componentType":5126,"count":53,"max":[1.0,1.0,1.0],"min":[-1.0,-1.0,-1.0],"type":"VEC3"},{"bufferView":6,"componentType":5125,"count":3438,"max":[1302.0],"min":[0.0],"type":"SCALAR"},{"bufferView":7,"componentType":5126,"count":1303,"max":[0.1777999997138977,0.09779000282287598,9.953929186354837e-18],"min":[0.0,0.0,-0.24764999747276307],"type":"VEC3"},{"bufferView":8,"componentType":5126,"count":1303,"max":[1.0,1.0,1.0],"min":[-1.0,-1.0,-1.0],"type":"VEC3"},{"bufferView":9,"componentType":5125,"count":3984,"max":[1450.0],"min":[0.0],"type":"SCALAR"},{"bufferView":10,"componentType":5126,"count":1451,"max":[0.1325879991054535,0.09372600167989731,0.0],"min":[0.0,0.0,-0.24383999407291413],"type":"VEC3"},{"bufferView":11,"componentType":5126,"count":1451,"max":[1.0,1.0,1.0],"min":[-1.0,-1.0,-1.0],"type":"VEC3"},{"bufferView":12,"componentType":5125,"count":1416,"max":[618.0],"min":[0.0],"type":"SCALAR"},{"bufferView":13,"componentType":5126,"count":619,"max":[0.1777999997138977,0.007619999814778566,4.336808689942018e-19],"min":[-8.673617379884036e-19,0.0,-0.24764999747276307],"type":"VEC3"},{"bufferView":14,"componentType":5126,"count":619,"max":[1.0,1.0,1.0],"min":[-1.0,-1.0,-1.0],"type":"VEC3"},{"bufferView":15,"componentType":5125,"count":7368,"max":[2625.0],"min":[0.0],"type":"SCALAR"},{"bufferView":16,"componentType":5126,"count":2626,"max":[0.20319999754428864,0.07620000094175339,0.00457199988886714],"min":[0.0,-1.734723475976807e-18,0.0],"type":"VEC3"},{"bufferView":17,"componentType":5126,"count":2626,"max":[1.0,1.0,1.0],"min":[-1.0,-1.0,-1.0],"type":"VEC3"},{"bufferView":18,"componentType":5125,"count":3480,"max":[1207.0],"min":[0.0],"type":"SCALAR"},{"bufferView":19,"componentType":5126,"count":1208,"max":[0.20319999754428864,0.07620000094175339,0.00457199988886714],"min":[0.0,-1.734723475976807e-18,0.0],"type":"VEC3"},{"bufferView":20,"componentType":5126,"count":1208,"max":[1.0,1.0,1.0],"min":[-1.0,-1.0,-1.0],"type":"VEC3"},{"bufferView":21,"componentType":5125,"count":1128,"max":[413.0],"min":[0.0],"type":"SCALAR"},{"bufferView":22,"componentType":5126,"count":414,"max":[0.007614408154040575,0.055371999740600589,0.007619999814778566],"min":[-0.007614408154040575,-0.00457199988886714,-0.007619999814778566],"type":"VEC3"},{"bufferView":23,"componentType":5126,"count":414,"max":[0.9992662072181702,1.0,1.0],"min":[-0.9992662072181702,-1.0,-1.0],"type":"VEC3"},{"bufferView":24,"componentType":5125,"count":1086,"max":[402.0],"min":[0.0],"type":"SCALAR"},{"bufferView":25,"componentType":5126,"count":403,"max":[0.007614408154040575,0.05079999938607216,0.007619999814778566],"min":[-0.007614408154040575,-0.00457199988886714,-0.007619999814778566],"type":"VEC3"},{"bufferView":26,"componentType":5126,"count":403,"max":[1.0,1.0,1.0],"min":[-1.0,-1.0,-1.0],"type":"VEC3"},{"bufferView":27,"componentType":5125,"count":15612,"max":[5552.0],"min":[0.0],"type":"SCALAR"},{"bufferView":28,"componentType":5126,"count":5553,"max":[0.038100000470876697,0.0025400000158697368,0.04698999971151352],"min":[-0.038100000470876697,-6.327264647584699e-16,-0.04698999971151352],"type":"VEC3"},{"bufferView":29,"componentType":5126,"count":5553,"max":[1.0,1.0,1.0],"min":[-1.0,-1.0,-1.0],"type":"VEC3"},{"bufferView":30,"componentType":5125,"count":228,"max":[119.0],"min":[0.0],"type":"SCALAR"},{"bufferView":31,"componentType":5126,"count":120,"max":[0.08508999645709992,0.038100000470876697,0.00457199988886714],"min":[-0.0025400000158697368,0.0,-0.034290000796318057],"type":"VEC3"},{"bufferView":32,"componentType":5126,"count":120,"max":[1.0,1.0,1.0],"min":[-1.0,-1.0,-1.0],"type":"VEC3"}],"asset":{"generator":"SimLab GLTF","version":"2.0"},"bufferViews":[{"buffer":0,"byteLength":2832,"target":34963},{"buffer":0,"byteLength":3312,"byteOffset":2832,"byteStride":12,"target":34962},{"buffer":0,"byteLength":3312,"byteOffset":6144,"byteStride":12,"target":34962},{"buffer":0,"byteLength":432,"byteOffset":9456,"target":34963},{"buffer":0,"byteLength":636,"byteOffset":9888,"byteStride":12,"target":34962},{"buffer":0,"byteLength":636,"byteOffset":10524,"byteStride":12,"target":34962},{"buffer":0,"byteLength":13752,"byteOffset":11160,"target":34963},{"buffer":0,"byteLength":15636,"byteOffset":24912,"byteStride":12,"target":34962},{"buffer":0,"byteLength":15636,"byteOffset":40548,"byteStride":12,"target":34962},{"buffer":0,"byteLength":15936,"byteOffset":56184,"target":34963},{"buffer":0,"byteLength":17412,"byteOffset":72120,"byteStride":12,"target":34962},{"buffer":0,"byteLength":17412,"byteOffset":89532,"byteStride":12,"target":34962},{"buffer":0,"byteLength":5664,"byteOffset":106944,"target":34963},{"buffer":0,"byteLength":7428,"byteOffset":112608,"byteStride":12,"target":34962},{"buffer":0,"byteLength":7428,"byteOffset":120036,"byteStride":12,"target":34962},{"buffer":0,"byteLength":29472,"byteOffset":127464,"target":34963},{"buffer":0,"byteLength":31512,"byteOffset":156936,"byteStride":12,"target":34962},{"buffer":0,"byteLength":31512,"byteOffset":188448,"byteStride":12,"target":34962},{"buffer":0,"byteLength":13920,"byteOffset":219960,"target":34963},{"buffer":0,"byteLength":14496,"byteOffset":233880,"byteStride":12,"target":34962},{"buffer":0,"byteLength":14496,"byteOffset":248376,"byteStride":12,"target":34962},{"buffer":0,"byteLength":4512,"byteOffset":262872,"target":34963},{"buffer":0,"byteLength":4968,"byteOffset":267384,"byteStride":12,"target":34962},{"buffer":0,"byteLength":4968,"byteOffset":272352,"byteStride":12,"target":34962},{"buffer":0,"byteLength":4344,"byteOffset":277320,"target":34963},{"buffer":0,"byteLength":4836,"byteOffset":281664,"byteStride":12,"target":34962},{"buffer":0,"byteLength":4836,"byteOffset":286500,"byteStride":12,"target":34962},{"buffer":0,"byteLength":62448,"byteOffset":291336,"target":34963},{"buffer":0,"byteLength":66636,"byteOffset":353784,"byteStride":12,"target":34962},{"buffer":0,"byteLength":66636,"byteOffset":420420,"byteStride":12,"target":34962},{"buffer":0,"byteLength":912,"byteOffset":487056,"target":34963},{"buffer":0,"byteLength":1440,"byteOffset":487968,"byteStride":12,"target":34962},{"buffer":0,"byteLength":1440,"byteOffset":489408,"byteStride":12,"target":34962}],"buffers":[{"byteLength":490848,"uri":"ModelGLTFFile.bin"}],"extensionsUsed":["KHR_materials_pbrSpecularGlossiness"],"materials":[{"extensions":{"KHR_materials_pbrSpecularGlossiness":{"diffuseFactor":[0.49803921580314639,0.49803921580314639,0.49803921580314639,1.0],"specularFactor":[0.24901960790157319,0.24901960790157319,0.24901960790157319],"glossinessFactor":0.5}},"name":"Mtl","alphaMode":"MASK","doubleSided":true,"pbrMetallicRoughness":{"baseColorFactor":[0.49803921580314639,0.49803921580314639,0.49803921580314639,1.0],"metallicFactor":0.5,"roughnessFactor":0.5}},{"extensions":{"KHR_materials_pbrSpecularGlossiness":{"diffuseFactor":[0.49803921580314639,0.49803921580314639,0.49803921580314639,1.0],"specularFactor":[0.24901960790157319,0.24901960790157319,0.24901960790157319],"glossinessFactor":0.5}},"name":"Mtl1","alphaMode":"MASK","doubleSided":true,"pbrMetallicRoughness":{"baseColorFactor":[0.49803921580314639,0.49803921580314639,0.49803921580314639,1.0],"metallicFactor":0.5,"roughnessFactor":0.5}},{"extensions":{"KHR_materials_pbrSpecularGlossiness":{"diffuseFactor":[0.843137264251709,0.8156862854957581,0.7529411911964417,1.0],"specularFactor":[0.4215686321258545,0.40784314274787905,0.3764705955982208],"glossinessFactor":0.5}},"name":"Mtl2","alphaMode":"MASK","doubleSided":true,"pbrMetallicRoughness":{"baseColorFactor":[0.843137264251709,0.8156862854957581,0.7529411911964417,1.0],"metallicFactor":0.5,"roughnessFactor":0.5}},{"extensions":{"KHR_materials_pbrSpecularGlossiness":{"diffuseFactor":[1.0,1.0,1.0,1.0],"specularFactor":[1.0,1.0,1.0],"glossinessFactor":0.5}},"name":"texture","alphaMode":"MASK","doubleSided":true,"pbrMetallicRoughness":{"metallicFactor":0.5,"roughnessFactor":0.5}},{"extensions":{"KHR_materials_pbrSpecularGlossiness":{"diffuseFactor":[0.6941176652908325,0.09803921729326248,0.09803921729326248,1.0],"specularFactor":[0.34705883264541628,0.04901960864663124,0.04901960864663124],"glossinessFactor":0.5}},"name":"Mtl3","alphaMode":"MASK","doubleSided":true,"pbrMetallicRoughness":{"baseColorFactor":[0.6941176652908325,0.09803921729326248,0.09803921729326248,1.0],"metallicFactor":0.5,"roughnessFactor":0.5}},{"extensions":{"KHR_materials_pbrSpecularGlossiness":{"diffuseFactor":[0.6941176652908325,0.09803921729326248,0.09803921729326248,1.0],"specularFactor":[0.34705883264541628,0.04901960864663124,0.04901960864663124],"glossinessFactor":0.5}},"name":"Mtl4","alphaMode":"MASK","doubleSided":true,"pbrMetallicRoughness":{"baseColorFactor":[0.6941176652908325,0.09803921729326248,0.09803921729326248,1.0],"metallicFactor":0.5,"roughnessFactor":0.5}},{"extensions":{"KHR_materials_pbrSpecularGlossiness":{"diffuseFactor":[0.699999988079071,0.699999988079071,0.699999988079071,1.0],"specularFactor":[0.05000000074505806,0.05000000074505806,0.05000000074505806],"glossinessFactor":0.5}},"name":"Mtl5","alphaMode":"MASK","doubleSided":true,"pbrMetallicRoughness":{"baseColorFactor":[0.699999988079071,0.699999988079071,0.699999988079071,1.0],"metallicFactor":0.5,"roughnessFactor":0.5}},{"extensions":{"KHR_materials_pbrSpecularGlossiness":{"diffuseFactor":[0.699999988079071,0.699999988079071,0.699999988079071,1.0],"specularFactor":[0.05000000074505806,0.05000000074505806,0.05000000074505806],"glossinessFactor":0.5}},"name":"Mtl6","alphaMode":"MASK","doubleSided":true,"pbrMetallicRoughness":{"baseColorFactor":[0.699999988079071,0.699999988079071,0.699999988079071,1.0],"metallicFactor":0.5,"roughnessFactor":0.5}},{"extensions":{"KHR_materials_pbrSpecularGlossiness":{"diffuseFactor":[0.0,0.36235296726226809,0.5901960730552673,1.0],"specularFactor":[0.0,0.025882354006171228,0.04215686395764351],"glossinessFactor":0.5}},"name":"Mtl7","alphaMode":"MASK","doubleSided":true,"pbrMetallicRoughness":{"baseColorFactor":[0.0,0.36235296726226809,0.5901960730552673,1.0],"metallicFactor":0.5}},{"extensions":{"KHR_materials_pbrSpecularGlossiness":{"diffuseFactor":[0.10980392247438431,0.10980392247438431,0.10980392247438431,1.0],"specularFactor":[0.07686274498701096,0.07686274498701096,0.07686274498701096],"glossinessFactor":0.5}},"name":"texture8","alphaMode":"MASK","doubleSided":true,"pbrMetallicRoughness":{"baseColorFactor":[0.10980392247438431,0.10980392247438431,0.10980392247438431,1.0],"metallicFactor":0.5,"roughnessFactor":0.5}}],"meshes":[{"primitives":[{"attributes":{"NORMAL":2,"POSITION":1},"indices":0,"material":0,"mode":4}]},{"primitives":[{"attributes":{"NORMAL":5,"POSITION":4},"indices":3,"material":0,"mode":4}]},{"primitives":[{"attributes":{"NORMAL":8,"POSITION":7},"indices":6,"material":1,"mode":4}]},{"primitives":[{"attributes":{"NORMAL":11,"POSITION":10},"indices":9,"material":2,"mode":4}]},{"primitives":[{"attributes":{"NORMAL":11,"POSITION":10},"indices":9,"material":2,"mode":4}]},{"primitives":[{"attributes":{"NORMAL":14,"POSITION":13},"indices":12,"material":3,"mode":4}]},{"primitives":[{"attributes":{"NORMAL":17,"POSITION":16},"indices":15,"material":4,"mode":4}]},{"primitives":[{"attributes":{"NORMAL":20,"POSITION":19},"indices":18,"material":5,"mode":4}]},{"primitives":[{"attributes":{"NORMAL":23,"POSITION":22},"indices":21,"material":6,"mode":4}]},{"primitives":[{"attributes":{"NORMAL":26,"POSITION":25},"indices":24,"material":7,"mode":4}]},{"primitives":[{"attributes":{"NORMAL":17,"POSITION":16},"indices":15,"material":4,"mode":4}]},{"primitives":[{"attributes":{"NORMAL":20,"POSITION":19},"indices":18,"material":5,"mode":4}]},{"primitives":[{"attributes":{"NORMAL":23,"POSITION":22},"indices":21,"material":6,"mode":4}]},{"primitives":[{"attributes":{"NORMAL":26,"POSITION":25},"indices":24,"material":7,"mode":4}]},{"primitives":[{"attributes":{"NORMAL":14,"POSITION":13},"indices":12,"material":3,"mode":4}]},{"primitives":[{"attributes":{"NORMAL":29,"POSITION":28},"indices":27,"material":8,"mode":4}]},{"primitives":[{"attributes":{"NORMAL":32,"POSITION":31},"indices":30,"material":9,"mode":4}]}],"nodes":[{"children":[1,2,5,7,9,11,13,22,31,33,35],"matrix":[1.0,0.0,0.0,0.0,0.0,4.4896593387466768e-11,-1.0,0.0,0.0,1.0,4.4896593387466768e-11,0.0,0.0,0.0,0.0,1.0]},{"name":"Camera-1","rotation":[-0.7071067690849304,0.0,0.0,-0.7071067690849304],"translation":[0.07123587280511856,-1.4816765785217286,0.04510073363780975]},{"name":"Test Left side-1","children":[3,4],"rotation":[-0.7071067690849304,0.0,0.0,-0.7071067690849304],"translation":[-0.10656412690877915,-0.13097837567329408,-0.04570426791906357]},{"name":"Body_1","mesh":0,"rotation":[0.0,0.0,0.0,-1.0]},{"name":"Body_2","mesh":1,"rotation":[0.0,0.0,0.0,-1.0]},{"name":"test right side-1","children":[6],"rotation":[-0.7071067690849304,0.0,0.0,-0.7071067690849304],"translation":[0.07123587280511856,-0.13097837567329408,-0.04570426791906357]},{"name":"Body_1","mesh":2,"rotation":[0.0,0.0,0.0,-1.0]},{"name":"Drawer-1","children":[8],"rotation":[-0.7071067690849304,0.0,0.0,-0.7071067690849304],"translation":[0.030087875202298166,-0.2352248728275299,-0.04189426824450493]},{"name":"Body_1","mesh":3,"rotation":[0.0,0.0,0.0,-1.0]},{"name":"Drawer-2","children":[10],"rotation":[-0.7071067690849304,0.0,0.0,-0.7071067690849304],"translation":[-0.1027541235089302,-0.13373839855194093,-0.04189426824450493]},{"name":"Body_1","mesh":4,"rotation":[0.0,0.0,0.0,-1.0]},{"name":"Left Side Sloted Board-1","children":[12],"rotation":[-0.7071067690849304,0.0,0.0,-0.7071067690849304],"translation":[-0.10656412690877915,-0.13097837567329408,0.05208573117852211]},{"name":"Body_1","mesh":5,"rotation":[0.0,0.0,0.0,-1.0]},{"name":"Conveyor Assembly-1","children":[14,16,18,20],"rotation":[0.0,0.0,0.0,-1.0]},{"name":"front side of conveyor-1","children":[15],"rotation":[0.0,0.7071067690849304,0.7071067690849304,-0.0],"translation":[0.16694706678390504,0.01255764439702034,0.05970573052763939]},{"name":"Body_1","mesh":6,"rotation":[0.0,0.0,0.0,-1.0]},{"name":"back side of conveyor-1","children":[17],"rotation":[-0.7071067690849304,0.0,0.0,-0.7071067690849304],"translation":[-0.0362529382109642,0.07250164449214935,0.05970573052763939]},{"name":"Body_1","mesh":7,"rotation":[0.0,0.0,0.0,-1.0]},{"name":"Rollers-1","children":[19],"rotation":[0.0,1.0,-3.0616171314629199e-17,-0.0],"translation":[-0.010852937586605549,0.017129644751548768,0.11685573309659958]},{"name":"Body_1","mesh":8,"rotation":[0.0,0.0,0.0,-1.0]},{"name":"Roller For Drive Shaft-1","children":[21],"rotation":[0.0,1.0,-3.0616171314629199e-17,-0.0],"translation":[0.1415470689535141,0.017129644751548768,0.11685573309659958]},{"name":"Body_1","mesh":9,"rotation":[0.0,0.0,0.0,-1.0]},{"name":"Conveyor Assembly-2","children":[23,25,27,29],"rotation":[0.0,0.0,0.0,-1.0]},{"name":"front side of conveyor-1","children":[24],"rotation":[-0.5,0.5,0.5,-0.5],"translation":[0.15794888138771058,-0.026944877579808236,-0.039354268461465839]},{"name":"Body_1","mesh":10,"rotation":[0.0,0.0,0.0,-1.0]},{"name":"back side of conveyor-1","children":[26],"rotation":[-0.5,-0.5,-0.5,-0.5],"translation":[0.09800487756729126,-0.23014487326145173,-0.039354268461465839]},{"name":"Body_1","mesh":11,"rotation":[0.0,0.0,0.0,-1.0]},{"name":"Rollers-1","children":[28],"rotation":[0.7071067690849304,-0.7071067690849304,2.1648901508566387e-17,2.1648901508566387e-17],"translation":[0.15337687730789185,-0.2047448754310608,0.017795732244849206]},{"name":"Body_1","mesh":12,"rotation":[0.0,0.0,0.0,-1.0]},{"name":"Roller For Drive Shaft-1","children":[30],"rotation":[0.7071067690849304,-0.7071067690849304,2.1648901508566387e-17,2.1648901508566387e-17],"translation":[0.15337687730789185,-0.052344877272844318,0.017795732244849206]},{"name":"Body_1","mesh":13,"rotation":[0.0,0.0,0.0,-1.0]},{"name":"Left Side Sloted Board-2","children":[32],"rotation":[0.0,0.7071067690849304,0.7071067690849304,-0.0],"translation":[0.24903587996959687,0.1166716143488884,0.05208573117852211]},{"name":"Body_1","mesh":14,"rotation":[0.0,0.0,0.0,-1.0]},{"name":"Temp Power Supply-2","children":[34],"rotation":[1.0,0.0,0.0,3.0616171314629199e-17],"translation":[0.20585587620735169,-0.12843838334083558,0.005095731467008591]},{"name":"Body_1","mesh":15,"rotation":[0.0,0.0,0.0,-1.0]},{"name":"back side cover-2","children":[36],"rotation":[-0.7071067690849304,0.0,0.0,-0.7071067690849304],"translation":[0.07423706352710724,0.07250164449214935,0.09221535921096802]},{"name":"Body_1","mesh":16,"rotation":[0.0,0.0,0.0,-1.0]}],"scene":0,"scenes":[{"nodes":[0]}]}